<svg width="645" height="675" viewBox="0 0 645 675" fill="none" xmlns="http://www.w3.org/2000/svg">
<path d="M407.171 58.6388L322.726 23.5734V31.2112L407.171 66.2766V58.6388Z" fill="white" fill-opacity="0.02"/>
<path d="M407.171 46.8521L322.726 11.7867V19.4245L407.171 54.4899V46.8521Z" fill="white" fill-opacity="0.02"/>
<path d="M389.321 27.4984L322.726 1.52588e-05V7.63778L389.321 35.1479V27.4984Z" fill="white" fill-opacity="0.02"/>
<path d="M235.924 58.6388L320.357 23.5734V31.2112L235.924 66.2766V58.6388Z" fill="white" fill-opacity="0.02"/>
<path d="M235.924 46.8521L320.357 11.7867V19.4245L235.924 54.4899V46.8521Z" fill="white" fill-opacity="0.02"/>
<path d="M253.774 27.4984L320.358 1.52588e-05V7.63778L253.774 35.1479V27.4984Z" fill="white" fill-opacity="0.02"/>
<path d="M336.729 425.9L327.52 422.105V405.804L336.729 409.599V425.9Z" fill="white" fill-opacity="0.02"/>
<path d="M336.729 393.286L327.52 389.491V373.202L336.729 376.997V393.286Z" fill="white" fill-opacity="0.02"/>
<path d="M336.729 360.684L327.52 356.889V340.588L336.729 344.383V360.684Z" fill="white" fill-opacity="0.02"/>
<path d="M336.729 295.469L327.52 291.662V275.372L336.729 279.168V295.469Z" fill="white" fill-opacity="0.02"/>
<path d="M336.729 262.855L327.52 259.06V242.759L336.729 246.554V262.855Z" fill="white" fill-opacity="0.02"/>
<path d="M336.729 230.241L327.52 226.446V210.157L336.729 213.952V230.241Z" fill="white" fill-opacity="0.02"/>
<path d="M336.729 197.639L327.52 193.844V177.543L336.729 181.338V197.639Z" fill="white" fill-opacity="0.02"/>
<path d="M336.729 165.025L327.52 161.23V144.929L336.729 148.736V165.025Z" fill="white" fill-opacity="0.02"/>
<path d="M336.729 132.423L327.52 128.616V112.327L336.729 116.122V132.423Z" fill="white" fill-opacity="0.02"/>
<path d="M336.729 99.8097L327.52 96.0144V79.7134L336.729 83.5087V99.8097Z" fill="white" fill-opacity="0.02"/>
<path d="M336.729 67.1959L327.52 63.4006V47.1114L336.729 50.9067V67.1959Z" fill="white" fill-opacity="0.02"/>
<path d="M351.821 431.204L342.611 427.409V411.108L351.821 414.903V431.204Z" fill="white" fill-opacity="0.02"/>
<path d="M351.821 431.204L342.611 427.409V411.108L351.821 414.903V431.204Z" fill="white" fill-opacity="0.02"/>
<path d="M351.821 464.348L342.611 460.553V444.252L351.821 448.059V464.348Z" fill="white" fill-opacity="0.02"/>
<path d="M367.209 482.17L358 478.375V462.085L367.209 465.881V482.17Z" fill="white" fill-opacity="0.02"/>
<path d="M351.821 530.648L342.611 526.841V510.552L351.821 514.347V530.648Z" fill="white" fill-opacity="0.02"/>
<path d="M351.821 398.59L342.611 394.795V378.506L351.821 382.301V398.59Z" fill="white" fill-opacity="0.02"/>
<path d="M351.821 365.988L342.611 362.193V345.892L351.821 349.687V365.988Z" fill="white" fill-opacity="0.02"/>
<path d="M351.821 333.375L342.611 329.579V313.278L351.821 317.085V333.375Z" fill="white" fill-opacity="0.02"/>
<path d="M351.821 300.773L342.611 296.966V280.676L351.821 284.472V300.773Z" fill="white" fill-opacity="0.02"/>
<path d="M351.821 202.943L342.611 199.148V182.847L351.821 186.642V202.943Z" fill="white" fill-opacity="0.02"/>
<path d="M351.821 170.329L342.611 166.534V150.233L351.821 154.04V170.329Z" fill="white" fill-opacity="0.02"/>
<path d="M351.821 105.114L342.611 101.318V85.0174L351.821 88.8127V105.114Z" fill="white" fill-opacity="0.02"/>
<path d="M351.821 72.4999L342.611 68.7046V52.4154L351.821 56.2107V72.4999Z" fill="white" fill-opacity="0.02"/>
<path d="M367.209 372.471L358 368.676V352.375L367.209 356.17V372.471Z" fill="white" fill-opacity="0.02"/>
<path d="M367.209 339.857L358 336.062V319.761L367.209 323.568V339.857Z" fill="white" fill-opacity="0.02"/>
<path d="M367.209 307.255L358 303.448V287.159L367.209 290.954V307.255Z" fill="white" fill-opacity="0.02"/>
<path d="M367.209 274.642L358 270.846V254.545L367.209 258.341V274.642Z" fill="white" fill-opacity="0.02"/>
<path d="M367.209 242.028L358 238.233V221.943L367.209 225.739V242.028Z" fill="white" fill-opacity="0.02"/>
<path d="M367.209 209.426L358 205.631V189.33L367.209 193.125V209.426Z" fill="white" fill-opacity="0.02"/>
<path d="M367.209 144.21L358 140.403V124.114L367.209 127.909V144.21Z" fill="white" fill-opacity="0.02"/>
<path d="M367.209 111.596L358 107.801V91.5001L367.209 95.2954V111.596Z" fill="white" fill-opacity="0.02"/>
<path d="M367.209 78.9826L358 75.1873V58.8981L367.209 62.6934V78.9826Z" fill="white" fill-opacity="0.02"/>
<path d="M383.225 444.252L374.016 440.457V424.156L383.225 427.963V444.252Z" fill="white" fill-opacity="0.02"/>
<path d="M383.225 379.036L374.016 375.241V358.94L383.225 362.747V379.036Z" fill="white" fill-opacity="0.02"/>
<path d="M383.225 346.434L374.016 342.627V326.338L383.225 330.133V346.434Z" fill="white" fill-opacity="0.02"/>
<path d="M383.225 313.821L374.016 310.025V293.724L383.225 297.52V313.821Z" fill="white" fill-opacity="0.02"/>
<path d="M383.225 281.207L374.016 277.411V261.111L383.225 264.918V281.207Z" fill="white" fill-opacity="0.02"/>
<path d="M383.225 248.605L374.016 244.798V228.509L383.225 232.304V248.605Z" fill="white" fill-opacity="0.02"/>
<path d="M383.225 215.991L374.016 212.196V195.895L383.225 199.702V215.991Z" fill="white" fill-opacity="0.02"/>
<path d="M383.225 183.389L374.016 179.582V163.293L383.225 167.088V183.389Z" fill="white" fill-opacity="0.02"/>
<path d="M383.225 150.775L374.016 146.98V130.679L383.225 134.474V150.775Z" fill="white" fill-opacity="0.02"/>
<path d="M383.225 118.162L374.016 114.366V98.0653L383.225 101.872V118.162Z" fill="white" fill-opacity="0.02"/>
<path d="M383.225 85.5596L374.016 81.7525V65.4633L383.225 69.2586V85.5596Z" fill="white" fill-opacity="0.02"/>
<path d="M398.53 451.301L389.32 447.505V431.204L398.53 435V451.301Z" fill="white" fill-opacity="0.02"/>
<path d="M398.53 418.687L389.32 414.891V398.59L398.53 402.397V418.687Z" fill="white" fill-opacity="0.02"/>
<path d="M398.53 386.085L389.32 382.278V365.988L398.53 369.784V386.085Z" fill="white" fill-opacity="0.02"/>
<path d="M398.53 353.471L389.32 349.676V333.375L398.53 337.182V353.471Z" fill="white" fill-opacity="0.02"/>
<path d="M398.53 320.869L389.32 317.062V300.773L398.53 304.568V320.869Z" fill="white" fill-opacity="0.02"/>
<path d="M398.53 255.641L389.32 251.846V235.545L398.53 239.352V255.641Z" fill="white" fill-opacity="0.02"/>
<path d="M398.53 223.039L389.32 219.232V202.943L398.53 206.738V223.039Z" fill="white" fill-opacity="0.02"/>
<path d="M398.53 190.426L389.32 186.63V170.329L398.53 174.125V190.426Z" fill="white" fill-opacity="0.02"/>
<path d="M398.53 157.824L389.32 154.017V137.727L398.53 141.523V157.824Z" fill="white" fill-opacity="0.02"/>
<path d="M398.53 92.5962L389.32 88.8009V72.4999L398.53 76.307V92.5962Z" fill="white" fill-opacity="0.02"/>
<path d="M387.829 502.266L378.62 498.471V482.17L387.829 485.977V502.266Z" fill="white" fill-opacity="0.02"/>
<path d="M306.64 425.9L315.849 422.105V405.804L306.64 409.599V425.9Z" fill="white" fill-opacity="0.02"/>
<path d="M306.64 393.286L315.849 389.491V373.202L306.64 376.997V393.286Z" fill="white" fill-opacity="0.02"/>
<path d="M306.64 360.684L315.849 356.889V340.588L306.64 344.383V360.684Z" fill="white" fill-opacity="0.02"/>
<path d="M306.64 295.469L315.849 291.662V275.372L306.64 279.168V295.469Z" fill="white" fill-opacity="0.02"/>
<path d="M306.64 262.855L315.849 259.06V242.759L306.64 246.554V262.855Z" fill="white" fill-opacity="0.02"/>
<path d="M306.64 230.241L315.849 226.446V210.157L306.64 213.952V230.241Z" fill="white" fill-opacity="0.02"/>
<path d="M306.64 197.639L315.849 193.844V177.543L306.64 181.338V197.639Z" fill="white" fill-opacity="0.02"/>
<path d="M306.64 165.025L315.849 161.23V144.929L306.64 148.736V165.025Z" fill="white" fill-opacity="0.02"/>
<path d="M306.64 132.423L315.849 128.616V112.327L306.64 116.122V132.423Z" fill="white" fill-opacity="0.02"/>
<path d="M306.64 99.8097L315.849 96.0144V79.7134L306.64 83.5087V99.8097Z" fill="white" fill-opacity="0.02"/>
<path d="M306.64 67.1959L315.849 63.4006V47.1114L306.64 50.9067V67.1959Z" fill="white" fill-opacity="0.02"/>
<path d="M291.547 431.204L300.756 427.409V411.108L291.547 414.903V431.204Z" fill="white" fill-opacity="0.02"/>
<path d="M291.547 431.204L300.756 427.409V411.108L291.547 414.903V431.204Z" fill="white" fill-opacity="0.02"/>
<path d="M291.547 464.348L300.756 460.553V444.252L291.547 448.059V464.348Z" fill="white" fill-opacity="0.02"/>
<path d="M276.159 482.17L285.368 478.375V462.085L276.159 465.881V482.17Z" fill="white" fill-opacity="0.02"/>
<path d="M291.547 530.648L300.756 526.841V510.552L291.547 514.347V530.648Z" fill="white" fill-opacity="0.02"/>
<path d="M291.547 398.59L300.756 394.795V378.506L291.547 382.301V398.59Z" fill="white" fill-opacity="0.02"/>
<path d="M291.547 365.988L300.756 362.193V345.892L291.547 349.687V365.988Z" fill="white" fill-opacity="0.02"/>
<path d="M291.547 333.375L300.756 329.579V313.278L291.547 317.085V333.375Z" fill="white" fill-opacity="0.02"/>
<path d="M291.547 300.773L300.756 296.966V280.676L291.547 284.472V300.773Z" fill="white" fill-opacity="0.02"/>
<path d="M291.547 202.943L300.756 199.148V182.847L291.547 186.642V202.943Z" fill="white" fill-opacity="0.02"/>
<path d="M291.547 170.329L300.756 166.534V150.233L291.547 154.04V170.329Z" fill="white" fill-opacity="0.02"/>
<path d="M291.547 105.114L300.756 101.318V85.0174L291.547 88.8127V105.114Z" fill="white" fill-opacity="0.02"/>
<path d="M291.547 72.4999L300.756 68.7046V52.4154L291.547 56.2107V72.4999Z" fill="white" fill-opacity="0.02"/>
<path d="M276.159 372.471L285.368 368.676V352.375L276.159 356.17V372.471Z" fill="white" fill-opacity="0.02"/>
<path d="M276.159 339.857L285.368 336.062V319.761L276.159 323.568V339.857Z" fill="white" fill-opacity="0.02"/>
<path d="M276.159 307.255L285.368 303.448V287.159L276.159 290.954V307.255Z" fill="white" fill-opacity="0.02"/>
<path d="M276.159 274.642L285.368 270.846V254.545L276.159 258.341V274.642Z" fill="white" fill-opacity="0.02"/>
<path d="M276.159 242.028L285.368 238.233V221.943L276.159 225.739V242.028Z" fill="white" fill-opacity="0.02"/>
<path d="M276.159 209.426L285.368 205.631V189.33L276.159 193.125V209.426Z" fill="white" fill-opacity="0.02"/>
<path d="M276.159 144.21L285.368 140.403V124.114L276.159 127.909V144.21Z" fill="white" fill-opacity="0.02"/>
<path d="M276.159 111.596L285.368 107.801V91.5001L276.159 95.2954V111.596Z" fill="white" fill-opacity="0.02"/>
<path d="M276.159 78.9826L285.368 75.1873V58.8981L276.159 62.6934V78.9826Z" fill="white" fill-opacity="0.02"/>
<path d="M260.144 444.252L269.341 440.457V424.156L260.144 427.963V444.252Z" fill="white" fill-opacity="0.02"/>
<path d="M260.144 379.036L269.341 375.241V358.94L260.144 362.747V379.036Z" fill="white" fill-opacity="0.02"/>
<path d="M260.144 346.434L269.341 342.627V326.338L260.144 330.133V346.434Z" fill="white" fill-opacity="0.02"/>
<path d="M260.144 313.821L269.341 310.025V293.724L260.144 297.52V313.821Z" fill="white" fill-opacity="0.02"/>
<path d="M260.144 281.207L269.341 277.411V261.111L260.144 264.918V281.207Z" fill="white" fill-opacity="0.02"/>
<path d="M260.144 248.605L269.341 244.798V228.509L260.144 232.304V248.605Z" fill="white" fill-opacity="0.02"/>
<path d="M260.144 215.991L269.341 212.196V195.895L260.144 199.702V215.991Z" fill="white" fill-opacity="0.02"/>
<path d="M260.144 183.389L269.341 179.582V163.293L260.144 167.088V183.389Z" fill="white" fill-opacity="0.02"/>
<path d="M260.144 150.775L269.341 146.98V130.679L260.144 134.474V150.775Z" fill="white" fill-opacity="0.02"/>
<path d="M260.144 118.162L269.341 114.366V98.0653L260.144 101.872V118.162Z" fill="white" fill-opacity="0.02"/>
<path d="M260.144 85.5596L269.341 81.7525V65.4633L260.144 69.2586V85.5596Z" fill="white" fill-opacity="0.02"/>
<path d="M244.838 451.301L254.047 447.505V431.204L244.838 435V451.301Z" fill="white" fill-opacity="0.02"/>
<path d="M244.838 418.687L254.047 414.891V398.59L244.838 402.397V418.687Z" fill="white" fill-opacity="0.02"/>
<path d="M244.838 386.085L254.047 382.278V365.988L244.838 369.784V386.085Z" fill="white" fill-opacity="0.02"/>
<path d="M244.838 353.471L254.047 349.676V333.375L244.838 337.182V353.471Z" fill="white" fill-opacity="0.02"/>
<path d="M244.838 320.869L254.047 317.062V300.773L244.838 304.568V320.869Z" fill="white" fill-opacity="0.02"/>
<path d="M244.838 255.641L254.047 251.846V235.545L244.838 239.352V255.641Z" fill="white" fill-opacity="0.02"/>
<path d="M244.838 223.039L254.047 219.232V202.943L244.838 206.738V223.039Z" fill="white" fill-opacity="0.02"/>
<path d="M244.838 190.426L254.047 186.63V170.329L244.838 174.125V190.426Z" fill="white" fill-opacity="0.02"/>
<path d="M244.838 157.824L254.047 154.017V137.727L244.838 141.523V157.824Z" fill="white" fill-opacity="0.02"/>
<path d="M244.838 92.5962L254.047 88.8009V72.4999L244.838 76.307V92.5962Z" fill="white" fill-opacity="0.02"/>
<path d="M255.539 502.266L264.748 498.471V482.17L255.539 485.977V502.266Z" fill="white" fill-opacity="0.02"/>
<path d="M336.729 425.9L327.52 422.105V405.804L336.729 409.599V425.9Z" fill="white" fill-opacity="0.02"/>
<path d="M336.729 393.286L327.52 389.491V373.202L336.729 376.997V393.286Z" fill="white" fill-opacity="0.02"/>
<path d="M336.729 360.684L327.52 356.889V340.588L336.729 344.383V360.684Z" fill="white" fill-opacity="0.02"/>
<path d="M336.729 295.469L327.52 291.662V275.372L336.729 279.168V295.469Z" fill="white" fill-opacity="0.02"/>
<path d="M336.729 262.855L327.52 259.06V242.759L336.729 246.554V262.855Z" fill="white" fill-opacity="0.02"/>
<path d="M336.729 230.241L327.52 226.446V210.157L336.729 213.952V230.241Z" fill="white" fill-opacity="0.02"/>
<path d="M336.729 197.639L327.52 193.844V177.543L336.729 181.338V197.639Z" fill="white" fill-opacity="0.02"/>
<path d="M336.729 165.025L327.52 161.23V144.929L336.729 148.736V165.025Z" fill="white" fill-opacity="0.02"/>
<path d="M336.729 132.423L327.52 128.616V112.327L336.729 116.122V132.423Z" fill="white" fill-opacity="0.02"/>
<path d="M336.729 99.8097L327.52 96.0144V79.7134L336.729 83.5087V99.8097Z" fill="white" fill-opacity="0.02"/>
<path d="M336.729 67.1959L327.52 63.4006V47.1114L336.729 50.9067V67.1959Z" fill="white" fill-opacity="0.02"/>
<path d="M351.821 431.204L342.611 427.409V411.108L351.821 414.903V431.204Z" fill="white" fill-opacity="0.02"/>
<path d="M351.821 431.204L342.611 427.409V411.108L351.821 414.903V431.204Z" fill="white" fill-opacity="0.02"/>
<path d="M351.821 464.348L342.611 460.553V444.252L351.821 448.059V464.348Z" fill="white" fill-opacity="0.02"/>
<path d="M367.209 482.17L358 478.375V462.085L367.209 465.881V482.17Z" fill="white" fill-opacity="0.02"/>
<path d="M351.821 530.648L342.611 526.841V510.552L351.821 514.347V530.648Z" fill="white" fill-opacity="0.02"/>
<path d="M351.821 398.59L342.611 394.795V378.506L351.821 382.301V398.59Z" fill="white" fill-opacity="0.02"/>
<path d="M351.821 365.988L342.611 362.193V345.892L351.821 349.687V365.988Z" fill="white" fill-opacity="0.02"/>
<path d="M351.821 333.375L342.611 329.579V313.278L351.821 317.085V333.375Z" fill="white" fill-opacity="0.02"/>
<path d="M351.821 300.773L342.611 296.966V280.676L351.821 284.472V300.773Z" fill="white" fill-opacity="0.02"/>
<path d="M351.821 202.943L342.611 199.148V182.847L351.821 186.642V202.943Z" fill="white" fill-opacity="0.02"/>
<path d="M351.821 170.329L342.611 166.534V150.233L351.821 154.04V170.329Z" fill="white" fill-opacity="0.02"/>
<path d="M351.821 105.114L342.611 101.318V85.0174L351.821 88.8127V105.114Z" fill="white" fill-opacity="0.02"/>
<path d="M351.821 72.4999L342.611 68.7046V52.4154L351.821 56.2107V72.4999Z" fill="white" fill-opacity="0.02"/>
<path d="M367.209 372.471L358 368.676V352.375L367.209 356.17V372.471Z" fill="white" fill-opacity="0.02"/>
<path d="M367.209 339.857L358 336.062V319.761L367.209 323.568V339.857Z" fill="white" fill-opacity="0.02"/>
<path d="M367.209 307.255L358 303.448V287.159L367.209 290.954V307.255Z" fill="white" fill-opacity="0.02"/>
<path d="M367.209 274.642L358 270.846V254.545L367.209 258.341V274.642Z" fill="white" fill-opacity="0.02"/>
<path d="M367.209 242.028L358 238.233V221.943L367.209 225.739V242.028Z" fill="white" fill-opacity="0.02"/>
<path d="M367.209 209.426L358 205.631V189.33L367.209 193.125V209.426Z" fill="white" fill-opacity="0.02"/>
<path d="M367.209 144.21L358 140.403V124.114L367.209 127.909V144.21Z" fill="white" fill-opacity="0.02"/>
<path d="M367.209 111.596L358 107.801V91.5001L367.209 95.2954V111.596Z" fill="white" fill-opacity="0.02"/>
<path d="M367.209 78.9826L358 75.1873V58.8981L367.209 62.6934V78.9826Z" fill="white" fill-opacity="0.02"/>
<path d="M383.225 444.252L374.016 440.457V424.156L383.225 427.963V444.252Z" fill="white" fill-opacity="0.02"/>
<path d="M383.225 379.036L374.016 375.241V358.94L383.225 362.747V379.036Z" fill="white" fill-opacity="0.02"/>
<path d="M383.225 346.434L374.016 342.627V326.338L383.225 330.133V346.434Z" fill="white" fill-opacity="0.02"/>
<path d="M383.225 313.821L374.016 310.025V293.724L383.225 297.52V313.821Z" fill="white" fill-opacity="0.02"/>
<path d="M383.225 281.207L374.016 277.411V261.111L383.225 264.918V281.207Z" fill="white" fill-opacity="0.02"/>
<path d="M383.225 248.605L374.016 244.798V228.509L383.225 232.304V248.605Z" fill="white" fill-opacity="0.02"/>
<path d="M383.225 215.991L374.016 212.196V195.895L383.225 199.702V215.991Z" fill="white" fill-opacity="0.02"/>
<path d="M383.225 183.389L374.016 179.582V163.293L383.225 167.088V183.389Z" fill="white" fill-opacity="0.02"/>
<path d="M383.225 150.775L374.016 146.98V130.679L383.225 134.474V150.775Z" fill="white" fill-opacity="0.02"/>
<path d="M383.225 118.162L374.016 114.366V98.0653L383.225 101.872V118.162Z" fill="white" fill-opacity="0.02"/>
<path d="M383.225 85.5596L374.016 81.7525V65.4633L383.225 69.2586V85.5596Z" fill="white" fill-opacity="0.02"/>
<path d="M398.53 451.301L389.32 447.505V431.204L398.53 435V451.301Z" fill="white" fill-opacity="0.02"/>
<path d="M398.53 418.687L389.32 414.891V398.59L398.53 402.397V418.687Z" fill="white" fill-opacity="0.02"/>
<path d="M398.53 386.085L389.32 382.278V365.988L398.53 369.784V386.085Z" fill="white" fill-opacity="0.02"/>
<path d="M398.53 353.471L389.32 349.676V333.375L398.53 337.182V353.471Z" fill="white" fill-opacity="0.02"/>
<path d="M398.53 320.869L389.32 317.062V300.773L398.53 304.568V320.869Z" fill="white" fill-opacity="0.02"/>
<path d="M398.53 255.641L389.32 251.846V235.545L398.53 239.352V255.641Z" fill="white" fill-opacity="0.02"/>
<path d="M398.53 223.039L389.32 219.232V202.943L398.53 206.738V223.039Z" fill="white" fill-opacity="0.02"/>
<path d="M398.53 190.426L389.32 186.63V170.329L398.53 174.125V190.426Z" fill="white" fill-opacity="0.02"/>
<path d="M398.53 157.824L389.32 154.017V137.727L398.53 141.523V157.824Z" fill="white" fill-opacity="0.02"/>
<path d="M398.53 92.5962L389.32 88.8009V72.4999L398.53 76.307V92.5962Z" fill="white" fill-opacity="0.02"/>
<path d="M387.829 502.266L378.62 498.471V482.17L387.829 485.977V502.266Z" fill="white" fill-opacity="0.02"/>
<path d="M306.64 425.9L315.849 422.105V405.804L306.64 409.599V425.9Z" fill="white" fill-opacity="0.02"/>
<path d="M306.64 393.286L315.849 389.491V373.202L306.64 376.997V393.286Z" fill="white" fill-opacity="0.02"/>
<path d="M306.64 360.684L315.849 356.889V340.588L306.64 344.383V360.684Z" fill="white" fill-opacity="0.02"/>
<path d="M306.64 295.469L315.849 291.662V275.372L306.64 279.168V295.469Z" fill="white" fill-opacity="0.02"/>
<path d="M306.64 262.855L315.849 259.06V242.759L306.64 246.554V262.855Z" fill="white" fill-opacity="0.02"/>
<path d="M306.64 230.241L315.849 226.446V210.157L306.64 213.952V230.241Z" fill="white" fill-opacity="0.02"/>
<path d="M306.64 197.639L315.849 193.844V177.543L306.64 181.338V197.639Z" fill="white" fill-opacity="0.02"/>
<path d="M306.64 165.025L315.849 161.23V144.929L306.64 148.736V165.025Z" fill="white" fill-opacity="0.02"/>
<path d="M306.64 132.423L315.849 128.616V112.327L306.64 116.122V132.423Z" fill="white" fill-opacity="0.02"/>
<path d="M306.64 99.8097L315.849 96.0144V79.7134L306.64 83.5087V99.8097Z" fill="white" fill-opacity="0.02"/>
<path d="M306.64 67.1959L315.849 63.4006V47.1114L306.64 50.9067V67.1959Z" fill="white" fill-opacity="0.02"/>
<path d="M291.547 431.204L300.756 427.409V411.108L291.547 414.903V431.204Z" fill="white" fill-opacity="0.02"/>
<path d="M291.547 431.204L300.756 427.409V411.108L291.547 414.903V431.204Z" fill="white" fill-opacity="0.02"/>
<path d="M291.547 464.348L300.756 460.553V444.252L291.547 448.059V464.348Z" fill="white" fill-opacity="0.02"/>
<path d="M276.159 482.17L285.368 478.375V462.085L276.159 465.881V482.17Z" fill="white" fill-opacity="0.02"/>
<path d="M291.547 530.648L300.756 526.841V510.552L291.547 514.347V530.648Z" fill="white" fill-opacity="0.02"/>
<path d="M291.547 398.59L300.756 394.795V378.506L291.547 382.301V398.59Z" fill="white" fill-opacity="0.02"/>
<path d="M291.547 365.988L300.756 362.193V345.892L291.547 349.687V365.988Z" fill="white" fill-opacity="0.02"/>
<path d="M291.547 333.375L300.756 329.579V313.278L291.547 317.085V333.375Z" fill="white" fill-opacity="0.02"/>
<path d="M291.547 300.773L300.756 296.966V280.676L291.547 284.472V300.773Z" fill="white" fill-opacity="0.02"/>
<path d="M291.547 202.943L300.756 199.148V182.847L291.547 186.642V202.943Z" fill="white" fill-opacity="0.02"/>
<path d="M291.547 170.329L300.756 166.534V150.233L291.547 154.04V170.329Z" fill="white" fill-opacity="0.02"/>
<path d="M291.547 105.114L300.756 101.318V85.0174L291.547 88.8127V105.114Z" fill="white" fill-opacity="0.02"/>
<path d="M291.547 72.4999L300.756 68.7046V52.4154L291.547 56.2107V72.4999Z" fill="white" fill-opacity="0.02"/>
<path d="M276.159 372.471L285.368 368.676V352.375L276.159 356.17V372.471Z" fill="white" fill-opacity="0.02"/>
<path d="M276.159 339.857L285.368 336.062V319.761L276.159 323.568V339.857Z" fill="white" fill-opacity="0.02"/>
<path d="M276.159 307.255L285.368 303.448V287.159L276.159 290.954V307.255Z" fill="white" fill-opacity="0.02"/>
<path d="M276.159 274.642L285.368 270.846V254.545L276.159 258.341V274.642Z" fill="white" fill-opacity="0.02"/>
<path d="M276.159 242.028L285.368 238.233V221.943L276.159 225.739V242.028Z" fill="white" fill-opacity="0.02"/>
<path d="M276.159 209.426L285.368 205.631V189.33L276.159 193.125V209.426Z" fill="white" fill-opacity="0.02"/>
<path d="M276.159 144.21L285.368 140.403V124.114L276.159 127.909V144.21Z" fill="white" fill-opacity="0.02"/>
<path d="M276.159 111.596L285.368 107.801V91.5001L276.159 95.2954V111.596Z" fill="white" fill-opacity="0.02"/>
<path d="M276.159 78.9826L285.368 75.1873V58.8981L276.159 62.6934V78.9826Z" fill="white" fill-opacity="0.02"/>
<path d="M260.144 444.252L269.341 440.457V424.156L260.144 427.963V444.252Z" fill="white" fill-opacity="0.02"/>
<path d="M260.144 379.036L269.341 375.241V358.94L260.144 362.747V379.036Z" fill="white" fill-opacity="0.02"/>
<path d="M260.144 346.434L269.341 342.627V326.338L260.144 330.133V346.434Z" fill="white" fill-opacity="0.02"/>
<path d="M260.144 313.821L269.341 310.025V293.724L260.144 297.52V313.821Z" fill="white" fill-opacity="0.02"/>
<path d="M260.144 281.207L269.341 277.411V261.111L260.144 264.918V281.207Z" fill="white" fill-opacity="0.02"/>
<path d="M260.144 248.605L269.341 244.798V228.509L260.144 232.304V248.605Z" fill="white" fill-opacity="0.02"/>
<path d="M260.144 215.991L269.341 212.196V195.895L260.144 199.702V215.991Z" fill="white" fill-opacity="0.02"/>
<path d="M260.144 183.389L269.341 179.582V163.293L260.144 167.088V183.389Z" fill="white" fill-opacity="0.02"/>
<path d="M260.144 150.775L269.341 146.98V130.679L260.144 134.474V150.775Z" fill="white" fill-opacity="0.02"/>
<path d="M260.144 118.162L269.341 114.366V98.0653L260.144 101.872V118.162Z" fill="white" fill-opacity="0.02"/>
<path d="M260.144 85.5596L269.341 81.7525V65.4633L260.144 69.2586V85.5596Z" fill="white" fill-opacity="0.02"/>
<path d="M244.838 451.301L254.047 447.505V431.204L244.838 435V451.301Z" fill="white" fill-opacity="0.02"/>
<path d="M244.838 418.687L254.047 414.891V398.59L244.838 402.397V418.687Z" fill="white" fill-opacity="0.02"/>
<path d="M244.838 386.085L254.047 382.278V365.988L244.838 369.784V386.085Z" fill="white" fill-opacity="0.02"/>
<path d="M244.838 353.471L254.047 349.676V333.375L244.838 337.182V353.471Z" fill="white" fill-opacity="0.02"/>
<path d="M244.838 320.869L254.047 317.062V300.773L244.838 304.568V320.869Z" fill="white" fill-opacity="0.02"/>
<path d="M244.838 255.641L254.047 251.846V235.545L244.838 239.352V255.641Z" fill="white" fill-opacity="0.02"/>
<path d="M244.838 223.039L254.047 219.232V202.943L244.838 206.738V223.039Z" fill="white" fill-opacity="0.02"/>
<path d="M244.838 190.426L254.047 186.63V170.329L244.838 174.125V190.426Z" fill="white" fill-opacity="0.02"/>
<path d="M244.838 157.824L254.047 154.017V137.727L244.838 141.523V157.824Z" fill="white" fill-opacity="0.02"/>
<path d="M244.838 92.5962L254.047 88.8009V72.4999L244.838 76.307V92.5962Z" fill="white" fill-opacity="0.02"/>
<path d="M255.539 502.266L264.748 498.471V482.17L255.539 485.977V502.266Z" fill="white" fill-opacity="0.02"/>
<path d="M483.886 470.289L476.831 467.378V454.884L483.886 457.795V470.289Z" fill="white" fill-opacity="0.02"/>
<path d="M483.886 445.289L476.831 442.378V429.884L483.886 432.795V445.289Z" fill="white" fill-opacity="0.02"/>
<path d="M483.886 420.302L476.831 417.378V404.896L483.886 407.808V420.302Z" fill="white" fill-opacity="0.02"/>
<path d="M483.886 370.302L476.831 367.391V354.909L483.886 357.82V370.302Z" fill="white" fill-opacity="0.02"/>
<path d="M483.886 345.315L476.831 342.403V329.909L483.886 332.821V345.315Z" fill="white" fill-opacity="0.02"/>
<path d="M483.886 320.315L476.831 317.404V304.91L483.886 307.821V320.315Z" fill="white" fill-opacity="0.02"/>
<path d="M483.886 295.315L476.831 292.404V279.91L483.886 282.833V295.315Z" fill="white" fill-opacity="0.02"/>
<path d="M483.886 270.328L476.831 267.416V254.923L483.886 257.834V270.328Z" fill="white" fill-opacity="0.02"/>
<path d="M483.886 245.328L476.831 242.417V229.923L483.886 232.834V245.328Z" fill="white" fill-opacity="0.02"/>
<path d="M483.886 220.329L476.831 217.417V204.935L483.886 207.847V220.329Z" fill="white" fill-opacity="0.02"/>
<path d="M495.451 474.355L488.396 471.444V458.95L495.451 461.861V474.355Z" fill="white" fill-opacity="0.02"/>
<path d="M495.451 474.355L488.396 471.444V458.95L495.451 461.861V474.355Z" fill="white" fill-opacity="0.02"/>
<path d="M495.451 499.756L488.396 496.844V484.362L495.451 487.273V499.756Z" fill="white" fill-opacity="0.02"/>
<path d="M507.253 513.428L500.198 510.505V498.023L507.253 500.934V513.428Z" fill="white" fill-opacity="0.02"/>
<path d="M495.451 550.58L488.396 547.668V535.175L495.451 538.086V550.58Z" fill="white" fill-opacity="0.02"/>
<path d="M516 575.072L508.945 572.161V559.667L516 562.579V575.072Z" fill="white" fill-opacity="0.02"/>
<path d="M495.451 449.356L488.396 446.444V433.951L495.451 436.862V449.356Z" fill="white" fill-opacity="0.02"/>
<path d="M495.451 424.356L488.396 421.445V408.963L495.451 411.874V424.356Z" fill="white" fill-opacity="0.02"/>
<path d="M495.451 399.368L488.396 396.457V383.963L495.451 386.874V399.368Z" fill="white" fill-opacity="0.02"/>
<path d="M495.451 374.369L488.396 371.457V358.964L495.451 361.887V374.369Z" fill="white" fill-opacity="0.02"/>
<path d="M495.451 299.382L488.396 296.471V283.977L495.451 286.888V299.382Z" fill="white" fill-opacity="0.02"/>
<path d="M495.451 274.394L488.396 271.483V258.989L495.451 261.9V274.394Z" fill="white" fill-opacity="0.02"/>
<path d="M495.451 199.407L488.396 196.496V184.002L495.451 186.913V199.407Z" fill="white" fill-opacity="0.02"/>
<path d="M507.253 429.33L500.198 426.419V413.925L507.253 416.836V429.33Z" fill="white" fill-opacity="0.02"/>
<path d="M507.253 404.331L500.198 401.419V388.937L507.253 391.848V404.331Z" fill="white" fill-opacity="0.02"/>
<path d="M507.253 354.343L500.198 351.432V338.938L507.253 341.849V354.343Z" fill="white" fill-opacity="0.02"/>
<path d="M507.253 329.355L500.198 326.432V313.95L507.253 316.862V329.355Z" fill="white" fill-opacity="0.02"/>
<path d="M507.253 304.356L500.198 301.445V288.951L507.253 291.862V304.356Z" fill="white" fill-opacity="0.02"/>
<path d="M507.253 254.369L500.198 251.457V238.963L507.253 241.875V254.369Z" fill="white" fill-opacity="0.02"/>
<path d="M507.253 229.369L500.198 226.458V213.964L507.253 216.875V229.369Z" fill="white" fill-opacity="0.02"/>
<path d="M507.253 204.369L500.198 201.458V188.964L507.253 191.876V204.369Z" fill="white" fill-opacity="0.02"/>
<path d="M519.529 484.362L512.474 481.451V468.957L519.529 471.868V484.362Z" fill="white" fill-opacity="0.02"/>
<path d="M519.529 409.375L512.474 406.464V393.97L519.529 396.881V409.375Z" fill="white" fill-opacity="0.02"/>
<path d="M519.529 384.376L512.474 381.464V368.971L519.529 371.882V384.376Z" fill="white" fill-opacity="0.02"/>
<path d="M519.529 359.376L512.474 356.465V343.983L519.529 346.894V359.376Z" fill="white" fill-opacity="0.02"/>
<path d="M519.529 334.388L512.474 331.477V318.983L519.529 321.894V334.388Z" fill="white" fill-opacity="0.02"/>
<path d="M519.529 309.389L512.474 306.477V293.984L519.529 296.895V309.389Z" fill="white" fill-opacity="0.02"/>
<path d="M519.529 284.389L512.474 281.478V268.996L519.529 271.907V284.389Z" fill="white" fill-opacity="0.02"/>
<path d="M519.529 259.401L512.474 256.49V243.996L519.529 246.908V259.401Z" fill="white" fill-opacity="0.02"/>
<path d="M519.529 234.402L512.474 231.491V218.997L519.529 221.908V234.402Z" fill="white" fill-opacity="0.02"/>
<path d="M519.529 209.402L512.474 206.491V194.009L519.529 196.92V209.402Z" fill="white" fill-opacity="0.02"/>
<path d="M531.258 489.76L524.203 486.849V474.355L531.258 477.267V489.76Z" fill="white" fill-opacity="0.02"/>
<path d="M531.258 464.761L524.203 461.85V449.356L531.258 452.267V464.761Z" fill="white" fill-opacity="0.02"/>
<path d="M531.258 439.761L524.203 436.85V424.356L531.258 427.279V439.761Z" fill="white" fill-opacity="0.02"/>
<path d="M531.258 414.774L524.203 411.862V399.368L531.258 402.28V414.774Z" fill="white" fill-opacity="0.02"/>
<path d="M531.258 389.774L524.203 386.863V374.369L531.258 377.28V389.774Z" fill="white" fill-opacity="0.02"/>
<path d="M531.258 339.787L524.203 336.875V324.381L531.258 327.293V339.787Z" fill="white" fill-opacity="0.02"/>
<path d="M531.258 314.787L524.203 311.876V299.382L531.258 302.293V314.787Z" fill="white" fill-opacity="0.02"/>
<path d="M531.258 289.788L524.203 286.876V274.394L531.258 277.305V289.788Z" fill="white" fill-opacity="0.02"/>
<path d="M531.258 264.8L524.203 261.888V249.395L531.258 252.306V264.8Z" fill="white" fill-opacity="0.02"/>
<path d="M531.258 214.801L524.203 211.901V199.407L531.258 202.319V214.801Z" fill="white" fill-opacity="0.02"/>
<path d="M523.055 528.821L516 525.91V513.428L523.055 516.339V528.821Z" fill="white" fill-opacity="0.02"/>
<path d="M460.827 470.289L467.882 467.378V454.884L460.827 457.795V470.289Z" fill="white" fill-opacity="0.02"/>
<path d="M460.827 445.289L467.882 442.378V429.884L460.827 432.795V445.289Z" fill="white" fill-opacity="0.02"/>
<path d="M460.827 420.302L467.882 417.378V404.896L460.827 407.808V420.302Z" fill="white" fill-opacity="0.02"/>
<path d="M460.827 370.302L467.882 367.391V354.909L460.827 357.82V370.302Z" fill="white" fill-opacity="0.02"/>
<path d="M460.827 345.315L467.882 342.403V329.909L460.827 332.821V345.315Z" fill="white" fill-opacity="0.02"/>
<path d="M460.827 320.315L467.882 317.404V304.91L460.827 307.821V320.315Z" fill="white" fill-opacity="0.02"/>
<path d="M460.827 295.315L467.882 292.404V279.91L460.827 282.833V295.315Z" fill="white" fill-opacity="0.02"/>
<path d="M460.827 270.328L467.882 267.416V254.923L460.827 257.834V270.328Z" fill="white" fill-opacity="0.02"/>
<path d="M460.827 245.328L467.882 242.417V229.923L460.827 232.834V245.328Z" fill="white" fill-opacity="0.02"/>
<path d="M449.263 474.355L456.318 471.444V458.95L449.263 461.861V474.355Z" fill="white" fill-opacity="0.02"/>
<path d="M449.263 474.355L456.318 471.444V458.95L449.263 461.861V474.355Z" fill="white" fill-opacity="0.02"/>
<path d="M449.263 499.756L456.318 496.844V484.362L449.263 487.273V499.756Z" fill="white" fill-opacity="0.02"/>
<path d="M437.462 513.428L444.517 510.505V498.023L437.462 500.934V513.428Z" fill="white" fill-opacity="0.02"/>
<path d="M449.263 550.58L456.318 547.668V535.175L449.263 538.086V550.58Z" fill="white" fill-opacity="0.02"/>
<path d="M449.263 449.356L456.318 446.444V433.951L449.263 436.862V449.356Z" fill="white" fill-opacity="0.02"/>
<path d="M449.263 399.368L456.318 396.457V383.963L449.263 386.874V399.368Z" fill="white" fill-opacity="0.02"/>
<path d="M449.263 374.369L456.318 371.457V358.964L449.263 361.887V374.369Z" fill="white" fill-opacity="0.02"/>
<path d="M449.263 299.382L456.318 296.471V283.977L449.263 286.888V299.382Z" fill="white" fill-opacity="0.02"/>
<path d="M449.263 274.394L456.318 271.483V258.989L449.263 261.9V274.394Z" fill="white" fill-opacity="0.02"/>
<path d="M449.263 224.395L456.318 221.484V209.002L449.263 211.901V224.395Z" fill="white" fill-opacity="0.02"/>
<path d="M449.263 199.407L456.318 196.496V184.002L449.263 186.913V199.407Z" fill="white" fill-opacity="0.02"/>
<path d="M437.462 429.33L444.517 426.419V413.925L437.462 416.836V429.33Z" fill="white" fill-opacity="0.02"/>
<path d="M437.462 404.331L444.517 401.419V388.937L437.462 391.849V404.331Z" fill="white" fill-opacity="0.02"/>
<path d="M437.462 379.343L444.517 376.432V363.938L437.462 366.849V379.343Z" fill="white" fill-opacity="0.02"/>
<path d="M437.462 354.343L444.517 351.432V338.938L437.462 341.849V354.343Z" fill="white" fill-opacity="0.02"/>
<path d="M437.462 329.355L444.517 326.432V313.95L437.462 316.862V329.355Z" fill="white" fill-opacity="0.02"/>
<path d="M437.462 304.356L444.517 301.445V288.951L437.462 291.862V304.356Z" fill="white" fill-opacity="0.02"/>
<path d="M437.462 254.369L444.517 251.457V238.963L437.462 241.875V254.369Z" fill="white" fill-opacity="0.02"/>
<path d="M437.462 229.369L444.517 226.458V213.964L437.462 216.875V229.369Z" fill="white" fill-opacity="0.02"/>
<path d="M425.187 484.362L432.241 481.451V468.957L425.187 471.868V484.362Z" fill="white" fill-opacity="0.02"/>
<path d="M425.187 434.363L432.241 431.452V418.958L425.187 421.881V434.363Z" fill="white" fill-opacity="0.02"/>
<path d="M425.187 409.375L432.241 406.464V393.97L425.187 396.881V409.375Z" fill="white" fill-opacity="0.02"/>
<path d="M425.187 384.376L432.241 381.464V368.971L425.187 371.882V384.376Z" fill="white" fill-opacity="0.02"/>
<path d="M425.187 359.376L432.241 356.465V343.983L425.187 346.894V359.376Z" fill="white" fill-opacity="0.02"/>
<path d="M425.187 334.388L432.241 331.477V318.983L425.187 321.894V334.388Z" fill="white" fill-opacity="0.02"/>
<path d="M425.187 309.389L432.241 306.477V293.984L425.187 296.895V309.389Z" fill="white" fill-opacity="0.02"/>
<path d="M425.187 284.389L432.241 281.478V268.996L425.187 271.907V284.389Z" fill="white" fill-opacity="0.02"/>
<path d="M425.187 259.401L432.241 256.49V243.996L425.187 246.908V259.401Z" fill="white" fill-opacity="0.02"/>
<path d="M425.187 234.402L432.241 231.491V218.997L425.187 221.908V234.402Z" fill="white" fill-opacity="0.02"/>
<path d="M425.187 209.402L432.241 206.491V194.009L425.187 196.92V209.402Z" fill="white" fill-opacity="0.02"/>
<path d="M413.456 489.76L420.511 486.849V474.355L413.456 477.267V489.76Z" fill="white" fill-opacity="0.02"/>
<path d="M413.456 464.761L420.511 461.85V449.356L413.456 452.267V464.761Z" fill="white" fill-opacity="0.02"/>
<path d="M413.456 439.761L420.511 436.85V424.356L413.456 427.279V439.761Z" fill="white" fill-opacity="0.02"/>
<path d="M413.456 339.787L420.511 336.875V324.381L413.456 327.293V339.787Z" fill="white" fill-opacity="0.02"/>
<path d="M413.456 314.787L420.511 311.876V299.382L413.456 302.293V314.787Z" fill="white" fill-opacity="0.02"/>
<path d="M413.456 289.787L420.511 286.876V274.394L413.456 277.305V289.787Z" fill="white" fill-opacity="0.02"/>
<path d="M413.456 264.8L420.511 261.888V249.395L413.456 252.306V264.8Z" fill="white" fill-opacity="0.02"/>
<path d="M421.647 528.821L428.714 525.91V513.428L421.647 516.339V528.821Z" fill="white" fill-opacity="0.02"/>
<path d="M512.474 547.044L505.419 544.132V531.639L512.474 534.55V547.044Z" fill="white" fill-opacity="0.02"/>
<path d="M491.924 595.746L484.869 592.835V580.341L491.924 583.252V595.746Z" fill="white" fill-opacity="0.02"/>
<path d="M512.474 611.151L505.419 608.24V595.746L512.474 598.658V611.151Z" fill="white" fill-opacity="0.02"/>
<path d="M531.258 599.553L524.203 596.642V584.148L531.258 587.059V599.553Z" fill="white" fill-opacity="0.02"/>
<path d="M428.714 557.322L435.769 554.41V541.917L428.714 544.828V557.322Z" fill="white" fill-opacity="0.02"/>
<path d="M440.988 611.151L448.043 608.24V595.746L440.988 598.658V611.151Z" fill="white" fill-opacity="0.02"/>
<path d="M162.914 485.435L153.717 481.639V465.338L162.914 469.134V485.435Z" fill="white" fill-opacity="0.02"/>
<path d="M162.914 452.821L153.717 449.026V432.725L162.914 436.532V452.821Z" fill="white" fill-opacity="0.02"/>
<path d="M162.914 420.219L153.717 416.412V400.123L162.914 403.918V420.219Z" fill="white" fill-opacity="0.02"/>
<path d="M162.914 354.991L153.717 351.196V334.907L162.914 338.702V354.991Z" fill="white" fill-opacity="0.02"/>
<path d="M162.914 322.389L153.717 318.594V302.293L162.914 306.088V322.389Z" fill="white" fill-opacity="0.02"/>
<path d="M162.914 289.776L153.717 285.98V269.679L162.914 273.486V289.776Z" fill="white" fill-opacity="0.02"/>
<path d="M162.914 257.174L153.717 253.367V237.077L162.914 240.873V257.174Z" fill="white" fill-opacity="0.02"/>
<path d="M162.914 224.56L153.717 220.765V204.464L162.914 208.259V224.56Z" fill="white" fill-opacity="0.02"/>
<path d="M162.914 191.946L153.717 188.151V171.862L162.914 175.657V191.946Z" fill="white" fill-opacity="0.02"/>
<path d="M162.914 159.344L153.717 155.549V139.248L162.914 143.043V159.344Z" fill="white" fill-opacity="0.02"/>
<path d="M162.914 126.73L153.717 122.935V106.634L162.914 110.441V126.73Z" fill="white" fill-opacity="0.02"/>
<path d="M178.006 490.739L168.809 486.943V470.642L178.006 474.438V490.739Z" fill="white" fill-opacity="0.02"/>
<path d="M178.006 490.739L168.809 486.943V470.642L178.006 474.438V490.739Z" fill="white" fill-opacity="0.02"/>
<path d="M178.006 523.883L168.809 520.088V503.787L178.006 507.582V523.883Z" fill="white" fill-opacity="0.02"/>
<path d="M193.394 541.704L184.196 537.909V521.608L193.394 525.415V541.704Z" fill="white" fill-opacity="0.02"/>
<path d="M178.006 590.171L168.809 586.376V570.087L178.006 573.882V590.171Z" fill="white" fill-opacity="0.02"/>
<path d="M178.006 458.125L168.809 454.33V438.029L178.006 441.836V458.125Z" fill="white" fill-opacity="0.02"/>
<path d="M178.006 425.523L168.809 421.716V405.427L178.006 409.222V425.523Z" fill="white" fill-opacity="0.02"/>
<path d="M178.006 392.909L168.809 389.114V372.813L178.006 376.608V392.909Z" fill="white" fill-opacity="0.02"/>
<path d="M178.006 360.295L168.809 356.5V340.211L178.006 344.006V360.295Z" fill="white" fill-opacity="0.02"/>
<path d="M178.006 262.478L168.809 258.671V242.381L178.006 246.177V262.478Z" fill="white" fill-opacity="0.02"/>
<path d="M178.006 229.864L168.809 226.069V209.768L178.006 213.563V229.864Z" fill="white" fill-opacity="0.02"/>
<path d="M178.006 164.648L168.809 160.853V144.552L178.006 148.347V164.648Z" fill="white" fill-opacity="0.02"/>
<path d="M178.006 132.034L168.809 128.239V111.938L178.006 115.745V132.034Z" fill="white" fill-opacity="0.02"/>
<path d="M193.394 432.006L184.196 428.199V411.909L193.394 415.705V432.006Z" fill="white" fill-opacity="0.02"/>
<path d="M193.394 399.392L184.196 395.597V379.296L193.394 383.091V399.392Z" fill="white" fill-opacity="0.02"/>
<path d="M193.394 366.778L184.196 362.983V346.694L193.394 350.489V366.778Z" fill="white" fill-opacity="0.02"/>
<path d="M193.394 334.176L184.196 330.381V314.08L193.394 317.875V334.176Z" fill="white" fill-opacity="0.02"/>
<path d="M193.394 301.562L184.196 297.767V281.466L193.394 285.273V301.562Z" fill="white" fill-opacity="0.02"/>
<path d="M193.394 268.96L184.196 265.153V248.864L193.394 252.659V268.96Z" fill="white" fill-opacity="0.02"/>
<path d="M193.394 203.733L184.196 199.938V183.648L193.394 187.444V203.733Z" fill="white" fill-opacity="0.02"/>
<path d="M193.394 171.131L184.196 167.336V151.035L193.394 154.83V171.131Z" fill="white" fill-opacity="0.02"/>
<path d="M193.394 138.517L184.196 134.722V118.421L193.394 122.228V138.517Z" fill="white" fill-opacity="0.02"/>
<path d="M209.42 503.787L200.211 499.991V483.69L209.42 487.497V503.787Z" fill="white" fill-opacity="0.02"/>
<path d="M209.42 438.571L200.211 434.776V418.475L209.42 422.27V438.571Z" fill="white" fill-opacity="0.02"/>
<path d="M209.42 405.957L200.211 402.162V385.861L209.42 389.668V405.957Z" fill="white" fill-opacity="0.02"/>
<path d="M209.42 373.355L200.211 369.548V353.259L209.42 357.054V373.355Z" fill="white" fill-opacity="0.02"/>
<path d="M209.42 340.741L200.211 336.946V320.645L209.42 324.452V340.741Z" fill="white" fill-opacity="0.02"/>
<path d="M209.42 308.139L200.211 304.332V288.043L209.42 291.838V308.139Z" fill="white" fill-opacity="0.02"/>
<path d="M209.42 275.526L200.211 271.73V255.429L209.42 259.225V275.526Z" fill="white" fill-opacity="0.02"/>
<path d="M209.42 242.912L200.211 239.117V222.816L209.42 226.623V242.912Z" fill="white" fill-opacity="0.02"/>
<path d="M209.42 210.31L200.211 206.503V190.214L209.42 194.009V210.31Z" fill="white" fill-opacity="0.02"/>
<path d="M209.42 177.696L200.211 173.901V157.6L209.42 161.407V177.696Z" fill="white" fill-opacity="0.02"/>
<path d="M209.42 145.094L200.211 141.287V124.998L209.42 128.793V145.094Z" fill="white" fill-opacity="0.02"/>
<path d="M224.727 510.835L215.518 507.028V490.739L224.727 494.534V510.835Z" fill="white" fill-opacity="0.02"/>
<path d="M224.727 478.221L215.518 474.426V458.125L224.727 461.92V478.221Z" fill="white" fill-opacity="0.02"/>
<path d="M224.727 445.619L215.518 441.812V425.523L224.727 429.318V445.619Z" fill="white" fill-opacity="0.02"/>
<path d="M224.727 413.005L215.518 409.21V392.909L224.727 396.705V413.005Z" fill="white" fill-opacity="0.02"/>
<path d="M224.727 380.392L215.518 376.596V360.295L224.727 364.103V380.392Z" fill="white" fill-opacity="0.02"/>
<path d="M224.727 315.176L215.518 311.381V295.08L224.727 298.875V315.176Z" fill="white" fill-opacity="0.02"/>
<path d="M224.727 282.562L215.518 278.767V262.478L224.727 266.273V282.562Z" fill="white" fill-opacity="0.02"/>
<path d="M224.727 249.96L215.518 246.165V229.864L224.727 233.659V249.96Z" fill="white" fill-opacity="0.02"/>
<path d="M224.727 217.347L215.518 213.551V197.25L224.727 201.057V217.347Z" fill="white" fill-opacity="0.02"/>
<path d="M224.727 152.131L215.518 148.335V132.034L224.727 135.83V152.131Z" fill="white" fill-opacity="0.02"/>
<path d="M214.026 561.801L204.816 558.005V541.704L214.026 545.511V561.801Z" fill="white" fill-opacity="0.02"/>
<path d="M149.027 623.256L144.423 625.107V109.369L149.027 107.518V623.256Z" fill="white" fill-opacity="0.02"/>
<path d="M138.636 502.867L134.031 504.718V113.789L138.636 111.938V502.867Z" fill="white" fill-opacity="0.02"/>
<path d="M129.485 604.009L124.881 605.859V117.278L129.485 115.427V604.009Z" fill="white" fill-opacity="0.02"/>
<path d="M160.131 77.8746L152.745 74.8219V61.7387L160.131 64.7914V77.8746Z" fill="white" fill-opacity="0.02"/>
<path d="M172.253 108.32L164.854 105.267V92.1837L172.253 95.2247V108.32Z" fill="white" fill-opacity="0.02"/>
<path d="M172.253 82.1296L164.854 79.0769V65.9936L172.253 69.0464V82.1296Z" fill="white" fill-opacity="0.02"/>
<path d="M184.61 113.518L177.212 110.465V97.3816L184.61 100.434V113.518Z" fill="white" fill-opacity="0.02"/>
<path d="M197.465 118.798L190.079 115.745V102.662L197.465 105.715V118.798Z" fill="white" fill-opacity="0.02"/>
<path d="M197.465 92.608L190.079 89.567V76.472L197.465 79.5248V92.608Z" fill="white" fill-opacity="0.02"/>
<path d="M150.212 101.731L145.607 103.581V63.5892L150.212 61.7387V101.731Z" fill="white" fill-opacity="0.02"/>
<path d="M141.003 105.668L136.398 107.518V67.526L141.003 65.6755V105.668Z" fill="white" fill-opacity="0.02"/>
<path d="M132.966 108.874L128.373 110.724V70.7319L132.966 68.8814V108.874Z" fill="white" fill-opacity="0.02"/>
<path d="M606.967 564.358L616.176 561.341V548.435L606.967 551.452V564.358Z" fill="white" fill-opacity="0.02"/>
<path d="M606.967 538.522L616.176 535.516V522.61L606.967 525.616V538.522Z" fill="white" fill-opacity="0.02"/>
<path d="M606.967 512.697L616.176 509.68V496.774L606.967 499.779V512.697Z" fill="white" fill-opacity="0.02"/>
<path d="M606.967 461.025L616.176 458.019V445.112L606.967 448.118V461.025Z" fill="white" fill-opacity="0.02"/>
<path d="M606.967 435.2L616.176 432.194V419.276L606.967 422.293V435.2Z" fill="white" fill-opacity="0.02"/>
<path d="M606.967 409.363L616.176 406.358V393.451L606.967 396.457V409.363Z" fill="white" fill-opacity="0.02"/>
<path d="M606.967 383.539L616.176 380.533V367.615L606.967 370.632V383.539Z" fill="white" fill-opacity="0.02"/>
<path d="M606.967 357.702L616.176 354.697V341.79L606.967 344.796V357.702Z" fill="white" fill-opacity="0.02"/>
<path d="M606.967 331.878L616.176 328.86V315.954L606.967 318.96V331.878Z" fill="white" fill-opacity="0.02"/>
<path d="M606.967 306.041L616.176 303.036V290.129L606.967 293.135V306.041Z" fill="white" fill-opacity="0.02"/>
<path d="M606.967 280.217L616.176 277.199V264.293L606.967 267.299V280.217Z" fill="white" fill-opacity="0.02"/>
<path d="M591.875 568.554L601.084 565.549V552.642L591.875 555.648V568.554Z" fill="white" fill-opacity="0.02"/>
<path d="M560.46 553.173L569.669 550.167V537.249L560.46 540.255V553.173Z" fill="white" fill-opacity="0.02"/>
<path d="M591.875 594.815L601.084 591.81V578.891L591.875 581.909V594.815Z" fill="white" fill-opacity="0.02"/>
<path d="M576.487 608.936L585.696 605.93V593.012L576.487 596.029V608.936Z" fill="white" fill-opacity="0.02"/>
<path d="M591.875 647.325L601.084 644.319V631.413L591.875 634.418V647.325Z" fill="white" fill-opacity="0.02"/>
<path d="M591.875 542.73L601.084 539.712V526.806L591.875 529.812V542.73Z" fill="white" fill-opacity="0.02"/>
<path d="M591.875 516.893L601.084 513.888V500.97L591.875 503.987V516.893Z" fill="white" fill-opacity="0.02"/>
<path d="M591.875 491.057L601.084 488.051V475.145L591.875 478.151V491.057Z" fill="white" fill-opacity="0.02"/>
<path d="M591.875 465.232L601.084 462.227V449.308L591.875 452.326V465.232Z" fill="white" fill-opacity="0.02"/>
<path d="M591.875 387.735L601.084 384.729V371.823L591.875 374.828V387.735Z" fill="white" fill-opacity="0.02"/>
<path d="M591.875 361.91L601.084 358.893V345.986L591.875 349.004V361.91Z" fill="white" fill-opacity="0.02"/>
<path d="M591.875 310.249L601.084 307.232V294.325L591.875 297.331V310.249Z" fill="white" fill-opacity="0.02"/>
<path d="M576.487 522.032L585.696 519.027V506.109L576.487 509.114V522.032Z" fill="white" fill-opacity="0.02"/>
<path d="M576.487 496.196L585.696 493.19V480.284L576.487 483.29V496.196Z" fill="white" fill-opacity="0.02"/>
<path d="M576.487 470.371L585.696 467.354V454.448L576.487 457.453V470.371Z" fill="white" fill-opacity="0.02"/>
<path d="M576.487 444.535L585.696 441.529V428.623L576.487 431.628V444.535Z" fill="white" fill-opacity="0.02"/>
<path d="M576.487 418.699L585.696 415.693V402.787L576.487 405.792V418.699Z" fill="white" fill-opacity="0.02"/>
<path d="M576.487 392.874L585.696 389.868V376.962L576.487 379.967V392.874Z" fill="white" fill-opacity="0.02"/>
<path d="M591.875 413.925L601.084 410.907V398.001L591.875 401.007" fill="white" fill-opacity="0.02"/>
<path d="M593.035 284.648L602.244 281.643V268.736L593.035 271.742V284.648Z" fill="white" fill-opacity="0.02"/>
<path d="M576.487 289.552L585.696 286.534V273.628L576.487 276.645V289.552Z" fill="white" fill-opacity="0.02"/>
<path d="M560.459 578.891L569.668 575.886V562.979L560.459 565.985V578.891Z" fill="white" fill-opacity="0.02"/>
<path d="M560.459 527.23L569.668 524.225V511.318L560.459 514.324V527.23Z" fill="white" fill-opacity="0.02"/>
<path d="M606.967 486.177L616.176 483.172V470.265L606.967 473.271V486.177Z" fill="white" fill-opacity="0.02"/>
<path d="M560.459 449.745L569.668 446.727V433.821L560.459 436.826V449.745Z" fill="white" fill-opacity="0.02"/>
<path d="M560.459 423.908L569.668 420.903V407.984L560.459 411.002V423.908Z" fill="white" fill-opacity="0.02"/>
<path d="M545.154 453.575L554.364 450.57V437.651L545.154 440.657V453.575Z" fill="white" fill-opacity="0.02"/>
<path d="M560.459 346.411L569.668 343.405V330.499L560.459 333.504V346.411Z" fill="white" fill-opacity="0.02"/>
<path d="M560.459 320.586L569.668 317.581V304.662L560.459 307.68V320.586Z" fill="white" fill-opacity="0.02"/>
<path d="M560.459 294.75L569.668 291.744V278.838L560.459 281.843V294.75Z" fill="white" fill-opacity="0.02"/>
<path d="M545.154 584.478L554.364 581.461V568.555L545.154 571.572V584.478Z" fill="white" fill-opacity="0.02"/>
<path d="M545.154 558.642L554.364 555.636V542.73L545.154 545.735V558.642Z" fill="white" fill-opacity="0.02"/>
<path d="M545.154 532.817L554.364 529.8V516.893L545.154 519.899V532.817Z" fill="white" fill-opacity="0.02"/>
<path d="M545.154 506.981L554.364 503.975V491.057L545.154 494.074V506.981Z" fill="white" fill-opacity="0.02"/>
<path d="M545.154 481.144L554.364 478.139V465.232L545.154 468.238V481.144Z" fill="white" fill-opacity="0.02"/>
<path d="M545.154 403.659L554.364 400.653V387.735L545.154 390.752V403.659Z" fill="white" fill-opacity="0.02"/>
<path d="M545.154 377.822L554.364 374.817V361.91L545.154 364.916V377.822Z" fill="white" fill-opacity="0.02"/>
<path d="M545.154 351.998L554.364 348.98V336.074L545.154 339.091V351.998Z" fill="white" fill-opacity="0.02"/>
<path d="M545.154 300.337L554.364 297.319V284.413L545.154 287.418V300.337Z" fill="white" fill-opacity="0.02"/>
<path d="M555.866 624.848L565.064 621.842V608.936L555.866 611.941V624.848Z" fill="white" fill-opacity="0.02"/>
<path d="M620.864 673.538L625.469 675V266.462L620.864 264.988V673.538Z" fill="white" fill-opacity="0.02"/>
<path d="M631.258 578.161L635.862 579.634V269.962L631.258 268.501V578.161Z" fill="white" fill-opacity="0.02"/>
<path d="M640.396 658.286L645 659.748V272.72L640.396 271.247V658.286Z" fill="white" fill-opacity="0.02"/>
<path d="M609.75 260.757L617.148 258.341V247.968L609.75 250.385V260.757Z" fill="white" fill-opacity="0.02"/>
<path d="M597.64 244.88L605.026 242.464V232.103L597.64 234.52V244.88Z" fill="white" fill-opacity="0.02"/>
<path d="M585.282 269.75L592.669 267.334V256.962L585.282 259.378V269.75Z" fill="white" fill-opacity="0.02"/>
<path d="M585.282 249.147L592.669 246.731V236.37L585.282 238.786V249.147Z" fill="white" fill-opacity="0.02"/>
<path d="M572.416 253.178L579.814 250.762V240.401L572.416 242.818V253.178Z" fill="white" fill-opacity="0.02"/>
<path d="M619.681 260.403L624.285 261.877V230.194L619.681 228.721V260.403Z" fill="white" fill-opacity="0.02"/>
<path d="M628.878 263.527L633.482 264.988V233.306L628.878 231.844V263.527Z" fill="white" fill-opacity="0.02"/>
<path d="M636.915 266.061L641.52 267.534V235.852L636.915 234.378V266.061Z" fill="white" fill-opacity="0.02"/>
<path d="M64.1209 504.765L57.6934 502.113V490.739L64.1209 493.391V504.765Z" fill="white" fill-opacity="0.02"/>
<path d="M64.1209 482.005L57.6934 479.353V467.99L64.1209 470.642V482.005Z" fill="white" fill-opacity="0.02"/>
<path d="M64.1209 459.256L57.6934 456.604V445.23L64.1209 447.882V459.256Z" fill="white" fill-opacity="0.02"/>
<path d="M64.1209 413.748L57.6934 411.096V399.722L64.1209 402.374V413.748Z" fill="white" fill-opacity="0.02"/>
<path d="M64.1209 390.988L57.6934 388.336V376.974L64.1209 379.626V390.988Z" fill="white" fill-opacity="0.02"/>
<path d="M64.1209 368.24L57.6934 365.588V354.213L64.1209 356.865V368.24Z" fill="white" fill-opacity="0.02"/>
<path d="M64.1209 345.48L57.6934 342.828V331.465L64.1209 334.117V345.48Z" fill="white" fill-opacity="0.02"/>
<path d="M64.1209 322.731L57.6934 320.079V308.705L64.1209 311.357V322.731Z" fill="white" fill-opacity="0.02"/>
<path d="M64.1209 299.971L57.6934 297.319V285.957L64.1209 288.609V299.971Z" fill="white" fill-opacity="0.02"/>
<path d="M64.1209 277.223L57.6934 274.571V263.197L64.1209 265.849V277.223Z" fill="white" fill-opacity="0.02"/>
<path d="M74.656 508.466L68.2285 505.814V494.44L74.656 497.092V508.466Z" fill="white" fill-opacity="0.02"/>
<path d="M74.656 508.466L68.2285 505.814V494.44L74.656 497.092V508.466Z" fill="white" fill-opacity="0.02"/>
<path d="M74.656 531.591L68.2285 528.951V517.565L74.656 520.217V531.591Z" fill="white" fill-opacity="0.02"/>
<path d="M85.3924 544.026L78.9648 541.386V530.012L85.3924 532.664V544.026Z" fill="white" fill-opacity="0.02"/>
<path d="M74.656 577.854L68.2285 575.202V563.828L74.656 566.48V577.854Z" fill="white" fill-opacity="0.02"/>
<path d="M93.3591 600.155L86.9316 597.503V586.128L93.3591 588.78V600.155Z" fill="white" fill-opacity="0.02"/>
<path d="M74.656 485.706L68.2285 483.066V471.691L74.656 474.343V485.706Z" fill="white" fill-opacity="0.02"/>
<path d="M74.656 462.958L68.2285 460.306V448.931L74.656 451.583V462.958Z" fill="white" fill-opacity="0.02"/>
<path d="M64.1209 436.991L57.6934 434.339V422.965L64.1209 425.617V436.991Z" fill="white" fill-opacity="0.02"/>
<path d="M74.656 417.449L68.2285 414.797V403.423L74.656 406.075V417.449Z" fill="white" fill-opacity="0.02"/>
<path d="M74.656 349.181L68.2285 346.54V335.166L74.656 337.818V349.181Z" fill="white" fill-opacity="0.02"/>
<path d="M74.656 326.432L68.2285 323.78V312.406L74.656 315.058V326.432Z" fill="white" fill-opacity="0.02"/>
<path d="M74.656 280.924L68.2285 278.272V266.898L74.656 269.55V280.924Z" fill="white" fill-opacity="0.02"/>
<path d="M96.567 495.253L90.1514 492.601V481.239L96.567 483.879V495.253Z" fill="white" fill-opacity="0.02"/>
<path d="M85.3924 444.723L78.9648 442.071V430.709L85.3924 433.349V444.723Z" fill="white" fill-opacity="0.02"/>
<path d="M85.3924 399.215L78.9648 396.563V385.201L85.3924 387.841V399.215Z" fill="white" fill-opacity="0.02"/>
<path d="M85.3924 376.467L78.9648 373.815V362.441L85.3924 365.093V376.467Z" fill="white" fill-opacity="0.02"/>
<path d="M85.3924 353.707L78.9648 351.055V339.68L85.3924 342.333V353.707Z" fill="white" fill-opacity="0.02"/>
<path d="M85.3924 308.198L78.9648 305.546V294.172L85.3924 296.824V308.198Z" fill="white" fill-opacity="0.02"/>
<path d="M85.3924 285.45L78.9648 282.798V271.424L85.3924 274.076V285.45Z" fill="white" fill-opacity="0.02"/>
<path d="M85.3924 262.69L78.9648 260.038V248.664L85.3924 251.316V262.69Z" fill="white" fill-opacity="0.02"/>
<path d="M96.5661 517.565L90.1504 514.925V503.551L96.5661 506.203V517.565Z" fill="white" fill-opacity="0.02"/>
<path d="M96.5661 449.308L90.1504 446.656V435.282L96.5661 437.934V449.308Z" fill="white" fill-opacity="0.02"/>
<path d="M96.5661 426.56L90.1504 423.908V412.534L96.5661 415.186V426.56Z" fill="white" fill-opacity="0.02"/>
<path d="M96.5661 403.8L90.1504 401.148V389.774L96.5661 392.426V403.8Z" fill="white" fill-opacity="0.02"/>
<path d="M96.5661 381.04L90.1504 378.4V367.026L96.5661 369.678V381.04Z" fill="white" fill-opacity="0.02"/>
<path d="M74.656 439.679L68.2285 437.027V425.653L74.656 428.305V439.679Z" fill="white" fill-opacity="0.02"/>
<path d="M74.656 371.646L68.2285 369.006V357.632L74.656 360.284V371.646Z" fill="white" fill-opacity="0.02"/>
<path d="M96.5661 312.783L90.1504 310.131V298.757L96.5661 301.409V312.783Z" fill="white" fill-opacity="0.02"/>
<path d="M96.5661 290.023L90.1504 287.383V276.009L96.5661 278.661V290.023Z" fill="white" fill-opacity="0.02"/>
<path d="M96.5661 267.275L90.1504 264.623V253.249L96.5661 255.901V267.275Z" fill="white" fill-opacity="0.02"/>
<path d="M107.244 522.492L100.828 519.84V508.466L107.244 511.118V522.492Z" fill="white" fill-opacity="0.02"/>
<path d="M107.244 499.732L100.828 497.08V485.706L107.244 488.358V499.732Z" fill="white" fill-opacity="0.02"/>
<path d="M107.244 476.984L100.828 474.332V462.957L107.244 465.609V476.984Z" fill="white" fill-opacity="0.02"/>
<path d="M107.244 454.224L100.828 451.572V440.197L107.244 442.849V454.224Z" fill="white" fill-opacity="0.02"/>
<path d="M107.244 431.475L100.828 428.823V417.449L107.244 420.101V431.475Z" fill="white" fill-opacity="0.02"/>
<path d="M107.244 385.955L100.828 383.315V371.941L107.244 374.593V385.955Z" fill="white" fill-opacity="0.02"/>
<path d="M107.244 363.207L100.828 360.555V349.181L107.244 351.833V363.207Z" fill="white" fill-opacity="0.02"/>
<path d="M107.244 340.447L100.828 337.806V326.432L107.244 329.084V340.447Z" fill="white" fill-opacity="0.02"/>
<path d="M107.244 317.698L100.828 315.046V303.672L107.244 306.324V317.698Z" fill="white" fill-opacity="0.02"/>
<path d="M74.656 304.049L68.2285 301.397V290.023L74.656 292.675V304.049Z" fill="white" fill-opacity="0.02"/>
<path d="M99.7859 558.052L93.3584 555.4V544.026L99.7859 546.678V558.052Z" fill="white" fill-opacity="0.02"/>
<path d="M43.1348 504.765L49.5504 502.113V490.739L43.1348 493.391V504.765Z" fill="white" fill-opacity="0.02"/>
<path d="M43.1348 482.005L49.5504 479.353V467.99L43.1348 470.642V482.005Z" fill="white" fill-opacity="0.02"/>
<path d="M43.1348 459.256L49.5504 456.604V445.23L43.1348 447.882V459.256Z" fill="white" fill-opacity="0.02"/>
<path d="M43.1348 413.748L49.5504 411.096V399.722L43.1348 402.374V413.748Z" fill="white" fill-opacity="0.02"/>
<path d="M43.1348 390.988L49.5504 388.336V376.974L43.1348 379.626V390.988Z" fill="white" fill-opacity="0.02"/>
<path d="M43.1348 368.24L49.5504 365.588V354.214L43.1348 356.866V368.24Z" fill="white" fill-opacity="0.02"/>
<path d="M43.1348 345.48L49.5504 342.828V331.465L43.1348 334.117V345.48Z" fill="white" fill-opacity="0.02"/>
<path d="M43.1348 322.731L49.5504 320.079V308.705L43.1348 311.357V322.731Z" fill="white" fill-opacity="0.02"/>
<path d="M43.1348 299.971L49.5504 297.319V285.957L43.1348 288.609V299.971Z" fill="white" fill-opacity="0.02"/>
<path d="M32.5996 508.466L39.0271 505.814V494.44L32.5996 497.092V508.466Z" fill="white" fill-opacity="0.02"/>
<path d="M32.5996 508.466L39.0271 505.814V494.44L32.5996 497.092V508.466Z" fill="white" fill-opacity="0.02"/>
<path d="M32.5996 531.591L39.0271 528.951V517.565L32.5996 520.217V531.591Z" fill="white" fill-opacity="0.02"/>
<path d="M21.8623 544.026L28.278 541.386V530.012L21.8623 532.664V544.026Z" fill="white" fill-opacity="0.02"/>
<path d="M32.5996 577.854L39.0271 575.202V563.828L32.5996 566.48V577.854Z" fill="white" fill-opacity="0.02"/>
<path d="M32.5996 485.706L39.0271 483.066V471.691L32.5996 474.343V485.706Z" fill="white" fill-opacity="0.02"/>
<path d="M32.5996 440.197L39.0271 437.557V426.183L32.5996 428.835V440.197Z" fill="white" fill-opacity="0.02"/>
<path d="M0 453.787L6.42751 451.135V439.773L0 442.425V453.787Z" fill="white" fill-opacity="0.02"/>
<path d="M32.5996 349.181L39.0271 346.54V335.166L32.5996 337.818V349.181Z" fill="white" fill-opacity="0.02"/>
<path d="M32.5996 326.432L39.0271 323.78V312.406L32.5996 315.058V326.432Z" fill="white" fill-opacity="0.02"/>
<path d="M32.5996 280.924L39.0271 278.272V266.898L32.5996 269.55V280.924Z" fill="white" fill-opacity="0.02"/>
<path d="M32.5996 258.164L39.0271 255.512V244.149L32.5996 246.79V258.164Z" fill="white" fill-opacity="0.02"/>
<path d="M21.8623 467.484L28.278 464.832V453.457L21.8623 456.109V467.484Z" fill="white" fill-opacity="0.02"/>
<path d="M21.8623 444.723L28.278 442.071V430.709L21.8623 433.349V444.723Z" fill="white" fill-opacity="0.02"/>
<path d="M21.8623 421.975L28.278 419.323V407.949L21.8623 410.601V421.975Z" fill="white" fill-opacity="0.02"/>
<path d="M21.8623 399.215L28.278 396.563V385.201L21.8623 387.841V399.215Z" fill="white" fill-opacity="0.02"/>
<path d="M21.8623 376.467L28.278 373.815V362.441L21.8623 365.093V376.467Z" fill="white" fill-opacity="0.02"/>
<path d="M21.8623 353.707L28.278 351.055V339.681L21.8623 342.333V353.707Z" fill="white" fill-opacity="0.02"/>
<path d="M21.8623 308.198L28.278 305.546V294.172L21.8623 296.824V308.198Z" fill="white" fill-opacity="0.02"/>
<path d="M21.8623 285.45L28.278 282.798V271.424L21.8623 274.076V285.45Z" fill="white" fill-opacity="0.02"/>
<path d="M10.6768 517.565L17.1043 514.925V503.551L10.6768 506.203V517.565Z" fill="white" fill-opacity="0.02"/>
<path d="M10.6768 472.069L17.1043 469.417V458.042L10.6768 460.694V472.069Z" fill="white" fill-opacity="0.02"/>
<path d="M10.6768 449.309L17.1043 446.657V435.282L10.6768 437.934V449.309Z" fill="white" fill-opacity="0.02"/>
<path d="M10.6768 426.56L17.1043 423.908V412.534L10.6768 415.186V426.56Z" fill="white" fill-opacity="0.02"/>
<path d="M10.6768 403.8L17.1043 401.148V389.774L10.6768 392.426V403.8Z" fill="white" fill-opacity="0.02"/>
<path d="M32.5986 371.646L39.0262 369.006V357.632L32.5986 360.284V371.646Z" fill="white" fill-opacity="0.02"/>
<path d="M10.6768 381.04L17.1043 378.4V367.026L10.6768 369.678V381.04Z" fill="white" fill-opacity="0.02"/>
<path d="M21.8623 330.086L28.278 327.434V316.06L21.8623 318.712V330.086Z" fill="white" fill-opacity="0.02"/>
<path d="M10.6768 312.783L17.1043 310.131V298.757L10.6768 301.409V312.783Z" fill="white" fill-opacity="0.02"/>
<path d="M32.5986 304.049L39.0262 301.397V290.023L32.5986 292.675V304.049Z" fill="white" fill-opacity="0.02"/>
<path d="M10.6768 267.275L17.1043 264.623V253.249L10.6768 255.901V267.275Z" fill="white" fill-opacity="0.02"/>
<path d="M0 522.492L6.42751 519.84V508.466L0 511.118V522.492Z" fill="white" fill-opacity="0.02"/>
<path d="M0 499.732L6.42751 497.08V485.706L0 488.358V499.732Z" fill="white" fill-opacity="0.02"/>
<path d="M0 476.984L6.42751 474.332V462.958L0 465.61V476.984Z" fill="white" fill-opacity="0.02"/>
<path d="M0 385.955L6.42751 383.315V371.941L0 374.593V385.955Z" fill="white" fill-opacity="0.02"/>
<path d="M0 363.207L6.42751 360.555V349.181L0 351.833V363.207Z" fill="white" fill-opacity="0.02"/>
<path d="M0 340.447L6.42751 337.806V326.432L0 329.084V340.447Z" fill="white" fill-opacity="0.02"/>
<path d="M0 317.698L6.42751 315.046V303.672L0 306.324V317.698Z" fill="white" fill-opacity="0.02"/>
<path d="M7.46875 558.053L13.8844 555.401V544.026L7.46875 546.678V558.053Z" fill="white" fill-opacity="0.02"/>
<path d="M90.1512 574.636L83.7236 571.984V560.61L90.1512 563.262V574.636Z" fill="white" fill-opacity="0.02"/>
<path d="M71.4362 618.978L65.0205 616.326V604.952L71.4362 607.604V618.978Z" fill="white" fill-opacity="0.02"/>
<path d="M90.1512 632.992L83.7236 630.34V618.978L90.1512 621.63V632.992Z" fill="white" fill-opacity="0.02"/>
<path d="M107.243 622.443L100.827 619.791V608.417L107.243 611.069V622.443Z" fill="white" fill-opacity="0.02"/>
<path d="M13.8965 583.995L20.3122 581.343V569.981L13.8965 572.621V583.995Z" fill="white" fill-opacity="0.02"/>
<path d="M25.0703 632.992L31.4978 630.34V618.978L25.0703 621.63V632.992Z" fill="white" fill-opacity="0.02"/>
</svg>
