<svg width="839" height="459" viewBox="0 0 839 459" fill="none" xmlns="http://www.w3.org/2000/svg">
<path d="M612.49 143.839C612.535 143.329 612.568 142.818 612.568 142.295C612.568 134.506 607.178 128.184 600.538 128.184C598.986 128.184 597.513 128.537 596.152 129.165C594.645 118.602 586.833 110.551 577.403 110.551C567.973 110.551 560.63 118.117 558.799 128.197C558.71 128.197 558.632 128.184 558.543 128.184C553.565 128.184 549.525 132.922 549.525 138.761C549.525 140.593 549.927 142.321 550.63 143.839H612.49Z" fill="#282727" stroke="#282727" stroke-width="0.68" stroke-miterlimit="10"/>
<path d="M828.101 230.614C828.146 230.103 828.18 229.593 828.18 229.069C828.18 221.281 822.789 214.958 816.149 214.958C814.598 214.958 813.125 215.312 811.763 215.94C810.257 205.376 802.445 197.326 793.014 197.326C783.584 197.326 776.241 204.892 774.411 214.971C774.321 214.971 774.243 214.958 774.154 214.958C769.177 214.958 765.137 219.697 765.137 225.535C765.137 227.368 765.538 229.095 766.242 230.614H828.101Z" fill="#282727" stroke="#282727" stroke-width="0.68" stroke-miterlimit="10"/>
<path d="M514.963 286.928C514.841 275.212 514.517 266.9 514.149 266.9C513.78 266.9 513.468 275.212 513.334 286.928H514.963Z" fill="#282727" stroke="#282727" stroke-miterlimit="10"/>
<path d="M515.51 277.882H512.776C512.218 277.882 511.771 278.406 511.771 279.061V294.245H516.514V279.061C516.514 278.406 516.068 277.882 515.51 277.882Z" fill="#282727" stroke="#282727" stroke-miterlimit="10"/>
<path d="M518.512 305.856H509.785V368.584H518.512V305.856Z" fill="#282727" stroke="#282727" stroke-miterlimit="10"/>
<path d="M518.066 289.493H510.232C508.845 289.493 507.721 290.812 507.721 292.439V302.911C507.721 304.537 508.845 305.856 510.232 305.856H518.066C519.453 305.856 520.577 304.537 520.577 302.911V292.439C520.577 290.812 519.453 289.493 518.066 289.493Z" fill="#282727" stroke="#282727" stroke-miterlimit="10"/>
<path d="M565.418 331.225C565.217 319.509 564.692 311.197 564.09 311.197C563.487 311.197 562.974 319.509 562.762 331.225H565.407H565.418Z" fill="#282727" stroke="#282727" stroke-miterlimit="10"/>
<path d="M590.26 350.768C587.705 336.565 576.958 325.897 564.09 325.897C551.223 325.897 540.476 336.565 537.92 350.768H590.26Z" fill="#282727" stroke="#282727" stroke-miterlimit="10"/>
<path d="M611.654 347.129H516.515V361.751H611.654V347.129Z" fill="#282727" stroke="#282727" stroke-miterlimit="10"/>
<path d="M628.339 361.751H499.854V370.521H628.339V361.751Z" fill="#282727" stroke="#282727" stroke-miterlimit="10"/>
<path d="M628.339 370.521H499.854V406.794H628.339V370.521Z" fill="#282727" stroke="#282727" stroke-miterlimit="10"/>
<path d="M621.073 376.935H507.107V406.781H621.073V376.935Z" fill="#282727" stroke="#282727" stroke-miterlimit="10"/>
<path d="M537.339 353.085H529.527V406.794H537.339V353.085Z" fill="#282727" stroke="#282727" stroke-miterlimit="10"/>
<path d="M513.904 392.657V382.355C513.904 381.02 512.977 379.933 511.839 379.933C510.701 379.933 509.774 381.02 509.774 382.355V392.657H513.892H513.904Z" fill="#282727" stroke="#282727" stroke-miterlimit="10"/>
<path d="M513.903 396.793H509.785V404.215H513.903V396.793Z" fill="#282727" stroke="#282727" stroke-miterlimit="10"/>
<path d="M520.576 392.657V382.355C520.576 381.02 519.65 379.933 518.512 379.933C517.374 379.933 516.447 381.02 516.447 382.355V392.657H520.565H520.576Z" fill="#282727" stroke="#282727" stroke-miterlimit="10"/>
<path d="M520.565 396.793H516.447V404.215H520.565V396.793Z" fill="#282727" stroke="#282727" stroke-miterlimit="10"/>
<path d="M527.24 392.657V382.355C527.24 381.02 526.313 379.933 525.175 379.933C524.037 379.933 523.11 381.02 523.11 382.355V392.657H527.228H527.24Z" fill="#282727" stroke="#282727" stroke-miterlimit="10"/>
<path d="M527.24 396.793H523.122V404.215H527.24V396.793Z" fill="#282727" stroke="#282727" stroke-miterlimit="10"/>
<path d="M604.992 392.657V382.355C604.992 381.02 604.065 379.933 602.927 379.933C601.789 379.933 600.862 381.02 600.862 382.355V392.657H604.98H604.992Z" fill="#282727" stroke="#282727" stroke-miterlimit="10"/>
<path d="M604.991 396.793H600.873V404.215H604.991V396.793Z" fill="#282727" stroke="#282727" stroke-miterlimit="10"/>
<path d="M611.664 392.657V382.355C611.664 381.02 610.738 379.933 609.6 379.933C608.461 379.933 607.535 381.02 607.535 382.355V392.657H611.653H611.664Z" fill="#282727" stroke="#282727" stroke-miterlimit="10"/>
<path d="M611.653 396.793H607.535V404.215H611.653V396.793Z" fill="#282727" stroke="#282727" stroke-miterlimit="10"/>
<path d="M618.328 392.657V382.355C618.328 381.02 617.402 379.933 616.264 379.933C615.125 379.933 614.199 381.02 614.199 382.355V392.657H618.317H618.328Z" fill="#282727" stroke="#282727" stroke-miterlimit="10"/>
<path d="M618.328 396.793H614.21V404.215H618.328V396.793Z" fill="#282727" stroke="#282727" stroke-miterlimit="10"/>
<path d="M540.241 382.355V406.794H544.538V382.355C544.538 381.02 543.578 379.933 542.395 379.933C541.212 379.933 540.252 381.02 540.252 382.355H540.241Z" fill="#282727" stroke="#282727" stroke-miterlimit="10"/>
<path d="M547.54 382.355V406.794H551.837V382.355C551.837 381.02 550.877 379.933 549.694 379.933C548.511 379.933 547.551 381.02 547.551 382.355H547.54Z" fill="#282727" stroke="#282727" stroke-miterlimit="10"/>
<path d="M554.838 382.355V406.794H559.134V382.355C559.134 381.02 558.175 379.933 556.992 379.933C555.809 379.933 554.849 381.02 554.849 382.355H554.838Z" fill="#282727" stroke="#282727" stroke-miterlimit="10"/>
<path d="M562.147 382.355V406.794H566.444V382.355C566.444 381.02 565.484 379.933 564.301 379.933C563.118 379.933 562.159 381.02 562.159 382.355H562.147Z" fill="#282727" stroke="#282727" stroke-miterlimit="10"/>
<path d="M569.446 382.355V406.794H573.743V382.355C573.743 381.02 572.783 379.933 571.6 379.933C570.417 379.933 569.457 381.02 569.457 382.355H569.446Z" fill="#282727" stroke="#282727" stroke-miterlimit="10"/>
<path d="M576.745 382.355V406.794H581.042V382.355C581.042 381.02 580.082 379.933 578.899 379.933C577.716 379.933 576.756 381.02 576.756 382.355H576.745Z" fill="#282727" stroke="#282727" stroke-miterlimit="10"/>
<path d="M584.044 382.355V406.794H588.341V382.355C588.341 381.02 587.381 379.933 586.198 379.933C585.015 379.933 584.055 381.02 584.055 382.355H584.044Z" fill="#282727" stroke="#282727" stroke-miterlimit="10"/>
<path d="M598.652 353.085H590.84V406.794H598.652V353.085Z" fill="#282727" stroke="#282727" stroke-miterlimit="10"/>
<path d="M838 406.585H1V412.501H838V406.585Z" fill="#282727" stroke="#282727" stroke-miterlimit="10"/>
<path d="M143.591 85.4837C143.647 84.8423 143.692 84.1878 143.692 83.5202C143.692 73.6371 136.862 65.6129 128.425 65.6129C126.461 65.6129 124.586 66.0579 122.856 66.8564C120.948 53.4521 111.037 43.2287 99.0628 43.2287C87.0881 43.2287 77.7806 52.8369 75.4593 65.626C75.3477 65.626 75.2473 65.6129 75.1357 65.6129C68.8191 65.6129 63.6855 71.6212 63.6855 79.0433C63.6855 81.3734 64.1989 83.5725 65.0917 85.4837H143.591Z" fill="#282727" stroke="#282727" stroke-width="0.86" stroke-miterlimit="10"/>
<path d="M340.889 143.787C340.923 143.394 340.945 142.989 340.945 142.57C340.945 136.457 336.727 131.509 331.515 131.509C330.299 131.509 329.138 131.783 328.078 132.281C326.895 123.995 320.768 117.685 313.38 117.685C305.992 117.685 300.222 123.615 298.794 131.522C298.727 131.522 298.66 131.522 298.593 131.522C294.687 131.522 291.518 135.239 291.518 139.821C291.518 141.261 291.83 142.622 292.388 143.8H340.901L340.889 143.787Z" fill="#282727" stroke="#282727" stroke-width="0.53" stroke-miterlimit="10"/>
<path d="M21.1211 432.438H88.8065" stroke="#282727" stroke-miterlimit="10" stroke-linecap="round"/>
<path d="M152.496 444.899H244.298" stroke="#282727" stroke-miterlimit="10" stroke-linecap="round"/>
<path d="M198.855 456.235H308.045" stroke="#282727" stroke-miterlimit="10" stroke-linecap="round"/>
<path d="M280.959 444.899H351.501" stroke="#282727" stroke-miterlimit="10" stroke-linecap="round"/>
<path d="M355.341 423.379H468.459" stroke="#282727" stroke-miterlimit="10" stroke-linecap="round"/>
<path d="M443.248 433.576H522.663" stroke="#282727" stroke-miterlimit="10" stroke-linecap="round"/>
<path d="M509.896 424.505H611.329" stroke="#282727" stroke-miterlimit="10" stroke-linecap="round"/>
<path d="M118.682 427.908H228.797" stroke="#282727" stroke-miterlimit="10" stroke-linecap="round"/>
<path d="M63.6289 444.899H118.715" stroke="#282727" stroke-miterlimit="10" stroke-linecap="round"/>
<path d="M506.034 446.038H644.161" stroke="#282727" stroke-miterlimit="10" stroke-linecap="round"/>
<path d="M580.416 433.576H685.699" stroke="#282727" stroke-miterlimit="10" stroke-linecap="round"/>
<path d="M665.41 418.85H750.472" stroke="#282727" stroke-miterlimit="10" stroke-linecap="round"/>
<path d="M735.93 432.438H806.55" stroke="#282727" stroke-miterlimit="10" stroke-linecap="round"/>
<path d="M819.965 443.774H798.37" stroke="#282727" stroke-miterlimit="10" stroke-linecap="round"/>
<path d="M383.353 442.635H431.899" stroke="#282727" stroke-miterlimit="10" stroke-linecap="round"/>
<path d="M265.515 426.783H308.19" stroke="#282727" stroke-miterlimit="10" stroke-linecap="round"/>
<path d="M365.965 458.5H406.554" stroke="#282727" stroke-miterlimit="10" stroke-linecap="round"/>
<path d="M454.832 452.832H499.316" stroke="#282727" stroke-miterlimit="10" stroke-linecap="round"/>
<path d="M739.792 448.303H688.59" stroke="#282727" stroke-miterlimit="10" stroke-linecap="round"/>
<path d="M342.307 86.6094H407.291" stroke="#282727" stroke-miterlimit="10" stroke-linecap="round"/>
<path d="M519.393 64.3693H569.668" stroke="#282727" stroke-miterlimit="10" stroke-linecap="round"/>
<path d="M707.438 144.402H737.526" stroke="#282727" stroke-miterlimit="10" stroke-linecap="round"/>
<path d="M720.005 168.187H692.931" stroke="#282727" stroke-miterlimit="10" stroke-linecap="round"/>
<path d="M753.808 189.72H734.468" stroke="#282727" stroke-miterlimit="10" stroke-linecap="round"/>
<path d="M379.022 215.089H405.115" stroke="#282727" stroke-miterlimit="10" stroke-linecap="round"/>
<path d="M558.062 191.92H585.125" stroke="#282727" stroke-miterlimit="10" stroke-linecap="round"/>
<path d="M56.0635 124.898H109.509" stroke="#282727" stroke-miterlimit="10" stroke-linecap="round"/>
<path d="M162.139 155.725H206.578" stroke="#282727" stroke-miterlimit="10" stroke-linecap="round"/>
<path d="M117.923 189.72H147.039" stroke="#282727" stroke-miterlimit="10" stroke-linecap="round"/>
<path d="M361.958 85.5884L360.128 8.44828L356.602 7.17854V87.5912H363.398L361.958 85.5884Z" fill="#282727" stroke="#282727" stroke-miterlimit="10"/>
<path d="M356.602 87.5912V406.585H384.301V116.586L363.398 87.5912H356.602Z" fill="#282727" stroke="#282727" stroke-miterlimit="10"/>
<path d="M356.602 92.7094H333.423V127.189H356.602V92.7094Z" fill="#282727" stroke="#282727" stroke-miterlimit="10"/>
<path d="M356.601 127.202H324.94V160.359H356.601V127.202Z" fill="#282727" stroke="#282727" stroke-miterlimit="10"/>
<path d="M356.601 160.346H328.333V406.585H356.601V160.346Z" fill="#282727" stroke="#282727" stroke-miterlimit="10"/>
<path d="M328.333 160.346H317.028V406.585H328.333V160.346Z" fill="#282727" stroke="#282727" stroke-miterlimit="10"/>
<path d="M333.948 164.103H331.236V170.138H333.948V164.103Z" fill="#282727" stroke="#282727" stroke-miterlimit="10"/>
<path d="M340.287 164.103H337.575V170.138H340.287V164.103Z" fill="#282727" stroke="#282727" stroke-miterlimit="10"/>
<path d="M346.614 164.103H343.902V170.138H346.614V164.103Z" fill="#282727" stroke="#282727" stroke-miterlimit="10"/>
<path d="M352.954 164.103H350.242V170.138H352.954V164.103Z" fill="#282727" stroke="#282727" stroke-miterlimit="10"/>
<path d="M333.948 177.533H331.236V183.568H333.948V177.533Z" fill="#282727" stroke="#282727" stroke-miterlimit="10"/>
<path d="M340.287 177.533H337.575V183.568H340.287V177.533Z" fill="#282727" stroke="#282727" stroke-miterlimit="10"/>
<path d="M346.614 177.533H343.902V183.568H346.614V177.533Z" fill="#282727" stroke="#282727" stroke-miterlimit="10"/>
<path d="M352.954 177.533H350.242V183.568H352.954V177.533Z" fill="#282727" stroke="#282727" stroke-miterlimit="10"/>
<path d="M333.948 190.964H331.236V196.998H333.948V190.964Z" fill="#282727" stroke="#282727" stroke-miterlimit="10"/>
<path d="M340.287 190.964H337.575V196.998H340.287V190.964Z" fill="#282727" stroke="#282727" stroke-miterlimit="10"/>
<path d="M346.614 190.964H343.902V196.998H346.614V190.964Z" fill="#282727" stroke="#282727" stroke-miterlimit="10"/>
<path d="M352.954 190.964H350.242V196.998H352.954V190.964Z" fill="#282727" stroke="#282727" stroke-miterlimit="10"/>
<path d="M333.948 204.394H331.236V210.429H333.948V204.394Z" fill="#282727" stroke="#282727" stroke-miterlimit="10"/>
<path d="M340.287 204.394H337.575V210.429H340.287V204.394Z" fill="#282727" stroke="#282727" stroke-miterlimit="10"/>
<path d="M346.614 204.394H343.902V210.429H346.614V204.394Z" fill="#282727" stroke="#282727" stroke-miterlimit="10"/>
<path d="M352.954 204.394H350.242V210.429H352.954V204.394Z" fill="#282727" stroke="#282727" stroke-miterlimit="10"/>
<path d="M333.948 217.825H331.236V223.859H333.948V217.825Z" fill="#282727" stroke="#282727" stroke-miterlimit="10"/>
<path d="M340.287 217.825H337.575V223.859H340.287V217.825Z" fill="#282727" stroke="#282727" stroke-miterlimit="10"/>
<path d="M346.614 217.825H343.902V223.859H346.614V217.825Z" fill="#282727" stroke="#282727" stroke-miterlimit="10"/>
<path d="M352.954 217.825H350.242V223.859H352.954V217.825Z" fill="#282727" stroke="#282727" stroke-miterlimit="10"/>
<path d="M333.948 231.255H331.236V237.29H333.948V231.255Z" fill="#282727" stroke="#282727" stroke-miterlimit="10"/>
<path d="M340.287 231.255H337.575V237.29H340.287V231.255Z" fill="#282727" stroke="#282727" stroke-miterlimit="10"/>
<path d="M346.614 231.255H343.902V237.29H346.614V231.255Z" fill="#282727" stroke="#282727" stroke-miterlimit="10"/>
<path d="M352.954 231.255H350.242V237.29H352.954V231.255Z" fill="#282727" stroke="#282727" stroke-miterlimit="10"/>
<path d="M333.948 244.686H331.236V250.72H333.948V244.686Z" fill="#282727" stroke="#282727" stroke-miterlimit="10"/>
<path d="M340.287 244.686H337.575V250.72H340.287V244.686Z" fill="#282727" stroke="#282727" stroke-miterlimit="10"/>
<path d="M346.614 244.686H343.902V250.72H346.614V244.686Z" fill="#282727" stroke="#282727" stroke-miterlimit="10"/>
<path d="M352.954 244.686H350.242V250.72H352.954V244.686Z" fill="#282727" stroke="#282727" stroke-miterlimit="10"/>
<path d="M333.948 258.116H331.236V264.151H333.948V258.116Z" fill="#282727" stroke="#282727" stroke-miterlimit="10"/>
<path d="M340.287 258.116H337.575V264.151H340.287V258.116Z" fill="#282727" stroke="#282727" stroke-miterlimit="10"/>
<path d="M346.614 258.116H343.902V264.151H346.614V258.116Z" fill="#282727" stroke="#282727" stroke-miterlimit="10"/>
<path d="M352.954 258.116H350.242V264.151H352.954V258.116Z" fill="#282727" stroke="#282727" stroke-miterlimit="10"/>
<path d="M333.948 271.534H331.236V277.568H333.948V271.534Z" fill="#282727" stroke="#282727" stroke-miterlimit="10"/>
<path d="M340.287 271.534H337.575V277.568H340.287V271.534Z" fill="#282727" stroke="#282727" stroke-miterlimit="10"/>
<path d="M346.614 271.534H343.902V277.568H346.614V271.534Z" fill="#282727" stroke="#282727" stroke-miterlimit="10"/>
<path d="M352.954 271.534H350.242V277.568H352.954V271.534Z" fill="#282727" stroke="#282727" stroke-miterlimit="10"/>
<path d="M333.948 284.964H331.236V290.999H333.948V284.964Z" fill="#282727" stroke="#282727" stroke-miterlimit="10"/>
<path d="M340.287 284.964H337.575V290.999H340.287V284.964Z" fill="#282727" stroke="#282727" stroke-miterlimit="10"/>
<path d="M346.614 284.964H343.902V290.999H346.614V284.964Z" fill="#282727" stroke="#282727" stroke-miterlimit="10"/>
<path d="M352.954 284.964H350.242V290.999H352.954V284.964Z" fill="#282727" stroke="#282727" stroke-miterlimit="10"/>
<path d="M333.948 298.395H331.236V304.429H333.948V298.395Z" fill="#282727" stroke="#282727" stroke-miterlimit="10"/>
<path d="M340.287 298.395H337.575V304.429H340.287V298.395Z" fill="#282727" stroke="#282727" stroke-miterlimit="10"/>
<path d="M346.614 298.395H343.902V304.429H346.614V298.395Z" fill="#282727" stroke="#282727" stroke-miterlimit="10"/>
<path d="M352.954 298.395H350.242V304.429H352.954V298.395Z" fill="#282727" stroke="#282727" stroke-miterlimit="10"/>
<path d="M333.948 311.825H331.236V317.86H333.948V311.825Z" fill="#282727" stroke="#282727" stroke-miterlimit="10"/>
<path d="M340.287 311.825H337.575V317.86H340.287V311.825Z" fill="#282727" stroke="#282727" stroke-miterlimit="10"/>
<path d="M346.614 311.825H343.902V317.86H346.614V311.825Z" fill="#282727" stroke="#282727" stroke-miterlimit="10"/>
<path d="M352.954 311.825H350.242V317.86H352.954V311.825Z" fill="#282727" stroke="#282727" stroke-miterlimit="10"/>
<path d="M333.948 325.256H331.236V331.29H333.948V325.256Z" fill="#282727" stroke="#282727" stroke-miterlimit="10"/>
<path d="M340.287 325.256H337.575V331.29H340.287V325.256Z" fill="#282727" stroke="#282727" stroke-miterlimit="10"/>
<path d="M346.614 325.256H343.902V331.29H346.614V325.256Z" fill="#282727" stroke="#282727" stroke-miterlimit="10"/>
<path d="M352.954 325.256H350.242V331.29H352.954V325.256Z" fill="#282727" stroke="#282727" stroke-miterlimit="10"/>
<path d="M333.948 338.686H331.236V344.721H333.948V338.686Z" fill="#282727" stroke="#282727" stroke-miterlimit="10"/>
<path d="M340.287 338.686H337.575V344.721H340.287V338.686Z" fill="#282727" stroke="#282727" stroke-miterlimit="10"/>
<path d="M346.614 338.686H343.902V344.721H346.614V338.686Z" fill="#282727" stroke="#282727" stroke-miterlimit="10"/>
<path d="M352.954 338.686H350.242V344.721H352.954V338.686Z" fill="#282727" stroke="#282727" stroke-miterlimit="10"/>
<path d="M333.948 352.117H331.236V358.151H333.948V352.117Z" fill="#282727" stroke="#282727" stroke-miterlimit="10"/>
<path d="M340.287 352.117H337.575V358.151H340.287V352.117Z" fill="#282727" stroke="#282727" stroke-miterlimit="10"/>
<path d="M346.614 352.117H343.902V358.151H346.614V352.117Z" fill="#282727" stroke="#282727" stroke-miterlimit="10"/>
<path d="M352.954 352.117H350.242V358.151H352.954V352.117Z" fill="#282727" stroke="#282727" stroke-miterlimit="10"/>
<path d="M333.948 365.534H331.236V371.568H333.948V365.534Z" fill="#282727" stroke="#282727" stroke-miterlimit="10"/>
<path d="M340.287 365.534H337.575V371.568H340.287V365.534Z" fill="#282727" stroke="#282727" stroke-miterlimit="10"/>
<path d="M346.614 365.534H343.902V371.568H346.614V365.534Z" fill="#282727" stroke="#282727" stroke-miterlimit="10"/>
<path d="M352.954 365.534H350.242V371.568H352.954V365.534Z" fill="#282727" stroke="#282727" stroke-miterlimit="10"/>
<path d="M333.948 378.964H331.236V384.999H333.948V378.964Z" fill="#282727" stroke="#282727" stroke-miterlimit="10"/>
<path d="M340.287 378.964H337.575V384.999H340.287V378.964Z" fill="#282727" stroke="#282727" stroke-miterlimit="10"/>
<path d="M346.614 378.964H343.902V384.999H346.614V378.964Z" fill="#282727" stroke="#282727" stroke-miterlimit="10"/>
<path d="M352.954 378.964H350.242V384.999H352.954V378.964Z" fill="#282727" stroke="#282727" stroke-miterlimit="10"/>
<path d="M364.481 287.442L364.234 287.752L364.481 288.063L383.824 312.444V312.759L363.993 287.752L383.824 262.745V263.06L364.481 287.442Z" fill="#78909C" stroke="#282727"/>
<path d="M364.481 355.942L364.234 356.253L364.481 356.564L383.824 380.945V381.26L363.993 356.253L383.824 331.259V331.561L364.481 355.942Z" fill="#78909C" stroke="#282727"/>
<path d="M364.481 218.928L364.234 219.239L364.481 219.549L383.824 243.931V244.246L363.993 219.239L383.824 194.244V194.547L364.481 218.928Z" fill="#78909C" stroke="#282727"/>
<path d="M364.481 150.427L364.234 150.738L364.481 151.049L383.824 175.43V175.745L363.993 150.738L383.824 125.731V126.046L364.481 150.427Z" fill="#78909C" stroke="#282727"/>
<path d="M358.387 218.928L358.14 219.239L358.387 219.549L383.824 251.628V251.929L357.899 219.239L383.824 186.548V186.863L358.387 218.928Z" fill="#78909C" stroke="#282727"/>
<path d="M358.387 355.942L358.14 356.253L358.387 356.564L383.824 388.629V388.944L357.899 356.253L383.824 323.562V323.877L358.387 355.942Z" fill="#78909C" stroke="#282727"/>
<path d="M358.387 287.442L358.14 287.752L358.387 288.063L383.824 320.128V320.443L357.899 287.752L383.824 255.062V255.376L358.387 287.442Z" fill="#78909C" stroke="#282727"/>
<path d="M358.387 150.427L358.14 150.738L358.387 151.049L383.824 183.114V183.429L357.899 150.738L383.824 118.047V118.362L358.387 150.427Z" fill="#78909C" stroke="#282727"/>
<path d="M489.897 48.5041H415.404V406.598H489.897V48.5041Z" fill="#282727" stroke="#282727" stroke-linecap="round" stroke-linejoin="round"/>
<path d="M467.655 58.7536H424.153V406.585H467.655V58.7536Z" fill="#282727" stroke="#282727" stroke-linecap="round" stroke-linejoin="round"/>
<path d="M473.459 28.8296L415.404 48.5041H473.459V28.8296Z" fill="#282727" stroke="#282727" stroke-linecap="round" stroke-linejoin="round"/>
<path d="M473.458 1V406.585H489.908V19.7189L473.458 1Z" fill="#282727" stroke="#282727" stroke-linecap="round" stroke-linejoin="round"/>
<path d="M462.958 62.1178H429.266V65.2987H462.958V62.1178Z" fill="#282727" stroke="#282727" stroke-linecap="round" stroke-linejoin="round"/>
<path d="M462.958 69.553H429.266V72.7339H462.958V69.553Z" fill="#282727" stroke="#282727" stroke-linecap="round" stroke-linejoin="round"/>
<path d="M462.958 76.9751H429.266V80.156H462.958V76.9751Z" fill="#282727" stroke="#282727" stroke-linecap="round" stroke-linejoin="round"/>
<path d="M462.958 84.4103H429.266V87.5912H462.958V84.4103Z" fill="#282727" stroke="#282727" stroke-linecap="round" stroke-linejoin="round"/>
<path d="M462.958 92.7094H429.266V95.8903H462.958V92.7094Z" fill="#282727" stroke="#282727" stroke-linecap="round" stroke-linejoin="round"/>
<path d="M462.958 100.145H429.266V103.326H462.958V100.145Z" fill="#282727" stroke="#282727" stroke-linecap="round" stroke-linejoin="round"/>
<path d="M462.958 107.567H429.266V110.748H462.958V107.567Z" fill="#282727" stroke="#282727" stroke-linecap="round" stroke-linejoin="round"/>
<path d="M462.958 115.002H429.266V118.183H462.958V115.002Z" fill="#282727" stroke="#282727" stroke-linecap="round" stroke-linejoin="round"/>
<path d="M462.958 123.301H429.266V126.482H462.958V123.301Z" fill="#282727" stroke="#282727" stroke-linecap="round" stroke-linejoin="round"/>
<path d="M462.958 130.736H429.266V133.917H462.958V130.736Z" fill="#282727" stroke="#282727" stroke-linecap="round" stroke-linejoin="round"/>
<path d="M462.958 138.171H429.266V141.352H462.958V138.171Z" fill="#282727" stroke="#282727" stroke-linecap="round" stroke-linejoin="round"/>
<path d="M462.958 145.594H429.266V148.774H462.958V145.594Z" fill="#282727" stroke="#282727" stroke-linecap="round" stroke-linejoin="round"/>
<path d="M462.958 153.906H429.266V157.087H462.958V153.906Z" fill="#282727" stroke="#282727" stroke-linecap="round" stroke-linejoin="round"/>
<path d="M462.958 161.328H429.266V164.509H462.958V161.328Z" fill="#282727" stroke="#282727" stroke-linecap="round" stroke-linejoin="round"/>
<path d="M462.958 168.763H429.266V171.944H462.958V168.763Z" fill="#282727" stroke="#282727" stroke-linecap="round" stroke-linejoin="round"/>
<path d="M462.958 176.185H429.266V179.366H462.958V176.185Z" fill="#282727" stroke="#282727" stroke-linecap="round" stroke-linejoin="round"/>
<path d="M462.958 184.497H429.266V187.678H462.958V184.497Z" fill="#282727" stroke="#282727" stroke-linecap="round" stroke-linejoin="round"/>
<path d="M462.958 191.92H429.266V195.1H462.958V191.92Z" fill="#282727" stroke="#282727" stroke-linecap="round" stroke-linejoin="round"/>
<path d="M462.958 199.355H429.266V202.536H462.958V199.355Z" fill="#282727" stroke="#282727" stroke-linecap="round" stroke-linejoin="round"/>
<path d="M462.958 206.777H429.266V209.958H462.958V206.777Z" fill="#282727" stroke="#282727" stroke-linecap="round" stroke-linejoin="round"/>
<path d="M462.958 215.089H429.266V218.27H462.958V215.089Z" fill="#282727" stroke="#282727" stroke-linecap="round" stroke-linejoin="round"/>
<path d="M462.958 222.511H429.266V225.692H462.958V222.511Z" fill="#282727" stroke="#282727" stroke-linecap="round" stroke-linejoin="round"/>
<path d="M462.958 229.946H429.266V233.127H462.958V229.946Z" fill="#282727" stroke="#282727" stroke-linecap="round" stroke-linejoin="round"/>
<path d="M462.958 237.382H429.266V240.562H462.958V237.382Z" fill="#282727" stroke="#282727" stroke-linecap="round" stroke-linejoin="round"/>
<path d="M462.958 245.681H429.266V248.862H462.958V245.681Z" fill="#282727" stroke="#282727" stroke-linecap="round" stroke-linejoin="round"/>
<path d="M462.958 253.116H429.266V256.297H462.958V253.116Z" fill="#282727" stroke="#282727" stroke-linecap="round" stroke-linejoin="round"/>
<path d="M462.958 260.538H429.266V263.719H462.958V260.538Z" fill="#282727" stroke="#282727" stroke-linecap="round" stroke-linejoin="round"/>
<path d="M462.958 267.973H429.266V271.154H462.958V267.973Z" fill="#282727" stroke="#282727" stroke-linecap="round" stroke-linejoin="round"/>
<path d="M462.958 276.272H429.266V279.453H462.958V276.272Z" fill="#282727" stroke="#282727" stroke-linecap="round" stroke-linejoin="round"/>
<path d="M462.958 283.707H429.266V286.888H462.958V283.707Z" fill="#282727" stroke="#282727" stroke-linecap="round" stroke-linejoin="round"/>
<path d="M462.958 291.13H429.266V294.31H462.958V291.13Z" fill="#282727" stroke="#282727" stroke-linecap="round" stroke-linejoin="round"/>
<path d="M462.958 298.565H429.266V301.746H462.958V298.565Z" fill="#282727" stroke="#282727" stroke-linecap="round" stroke-linejoin="round"/>
<path d="M462.958 306.864H429.266V310.045H462.958V306.864Z" fill="#282727" stroke="#282727" stroke-linecap="round" stroke-linejoin="round"/>
<path d="M462.958 314.299H429.266V317.48H462.958V314.299Z" fill="#282727" stroke="#282727" stroke-linecap="round" stroke-linejoin="round"/>
<path d="M462.958 321.721H429.266V324.902H462.958V321.721Z" fill="#282727" stroke="#282727" stroke-linecap="round" stroke-linejoin="round"/>
<path d="M462.958 329.156H429.266V332.337H462.958V329.156Z" fill="#282727" stroke="#282727" stroke-linecap="round" stroke-linejoin="round"/>
<path d="M462.958 337.456H429.266V340.636H462.958V337.456Z" fill="#282727" stroke="#282727" stroke-linecap="round" stroke-linejoin="round"/>
<path d="M462.958 344.891H429.266V348.072H462.958V344.891Z" fill="#282727" stroke="#282727" stroke-linecap="round" stroke-linejoin="round"/>
<path d="M462.958 352.313H429.266V355.494H462.958V352.313Z" fill="#282727" stroke="#282727" stroke-linecap="round" stroke-linejoin="round"/>
<path d="M462.958 359.748H429.266V362.929H462.958V359.748Z" fill="#282727" stroke="#282727" stroke-linecap="round" stroke-linejoin="round"/>
<path d="M462.958 368.047H429.266V371.228H462.958V368.047Z" fill="#282727" stroke="#282727" stroke-linecap="round" stroke-linejoin="round"/>
<path d="M462.958 375.482H429.266V378.663H462.958V375.482Z" fill="#282727" stroke="#282727" stroke-linecap="round" stroke-linejoin="round"/>
<path d="M462.958 382.918H429.266V386.098H462.958V382.918Z" fill="#282727" stroke="#282727" stroke-linecap="round" stroke-linejoin="round"/>
<path d="M462.958 390.34H429.266V393.521H462.958V390.34Z" fill="#282727" stroke="#282727" stroke-linecap="round" stroke-linejoin="round"/>
<path d="M415.404 60.1805V225.692L456.049 78.114L415.404 60.1805Z" fill="#282727" stroke="#282727" stroke-linecap="round" stroke-linejoin="round"/>
<path d="M489.908 406.585H415.404L473.459 350.127L489.908 213.989V406.585Z" fill="#282727" stroke="#282727" stroke-linecap="round" stroke-linejoin="round"/>
<path d="M473.459 28.8296L424.154 38.6603L415.404 48.5041L473.459 28.8296Z" fill="#282727" stroke="#282727" stroke-linecap="round" stroke-linejoin="round"/>
<path d="M114.654 232.774L104.9 406.585H124.419L114.654 232.774Z" fill="#282727" stroke="#282727" stroke-miterlimit="10"/>
<path d="M159.115 262.724L151.035 406.585H167.206L159.115 262.724Z" fill="#282727" stroke="#282727" stroke-miterlimit="10"/>
<path d="M114.653 316.511C122.949 316.511 129.675 308.623 129.675 298.892C129.675 289.161 122.949 281.273 114.653 281.273C106.357 281.273 99.6318 289.161 99.6318 298.892C99.6318 308.623 106.357 316.511 114.653 316.511Z" fill="#282727" stroke="#282727" stroke-miterlimit="10"/>
<path d="M195.029 203.596L186.949 406.585H203.109L195.029 203.596Z" fill="#282727" stroke="#282727" stroke-miterlimit="10"/>
<path d="M208.176 306.456C209.365 297.945 204.445 289.915 197.189 288.522C189.933 287.128 183.087 292.898 181.899 301.409C180.71 309.921 185.63 317.95 192.886 319.344C200.142 320.738 206.988 314.968 208.176 306.456Z" fill="#282727" stroke="#282727" stroke-miterlimit="10"/>
<path d="M202.161 271.573C202.161 276.194 198.969 279.938 195.03 279.938C191.09 279.938 187.898 276.194 187.898 271.573C187.898 266.952 191.09 263.208 195.03 263.208C198.969 263.208 202.161 266.952 202.161 271.573Z" fill="#282727" stroke="#282727" stroke-miterlimit="10"/>
<path d="M212.85 297.112H177.205V300.253H212.85V297.112Z" fill="#282727" stroke="#282727" stroke-miterlimit="10"/>
<path d="M132.476 291.365H96.8311V294.507H132.476V291.365Z" fill="#282727" stroke="#282727" stroke-miterlimit="10"/>
<path d="M205.685 268.052H184.358V271.233H205.685V268.052Z" fill="#282727" stroke="#282727" stroke-miterlimit="10"/>
<path d="M242.893 406.585H330.198V385.483L318.971 371.621L286.551 367.72L256.174 385.038H220.93L212.851 406.585H242.893Z" fill="#282727" stroke="#282727" stroke-miterlimit="10"/>
<path d="M220.931 385.038L251.71 406.585L285.402 381.988L311.952 394.28L330.198 385.483" stroke="#282727" stroke-miterlimit="10"/>
<path d="M282.846 406.585L311.951 394.28L330.198 406.585" stroke="#282727" stroke-miterlimit="10"/>
<path d="M318.971 371.621L285.402 381.988L256.174 385.038L251.71 406.585" stroke="#282727" stroke-miterlimit="10"/>
<path d="M286.551 367.72L285.401 381.988" stroke="#282727" stroke-miterlimit="10"/>
<path d="M681.304 352.98C661.606 352.98 645.58 369.369 645.101 389.764H717.518C717.027 369.369 701.012 352.98 681.315 352.98H681.304Z" fill="#282727" stroke="#282727" stroke-linecap="round" stroke-linejoin="round"/>
<path d="M645.089 389.764C645.089 389.764 645.089 389.764 645.078 389.777C645.033 391.465 645.1 393.115 645.268 394.751C645.982 401.702 651.071 406.886 657.041 406.886H705.543C711.513 406.886 716.614 401.702 717.317 394.751C717.484 393.128 717.551 391.465 717.506 389.777C717.506 389.777 717.506 389.777 717.495 389.764H645.078H645.089Z" fill="#282727" stroke="#282727" stroke-linecap="round" stroke-linejoin="round"/>
<path d="M681.302 352.98C670.421 352.98 661.572 369.369 661.304 389.764H701.29C701.022 369.369 692.172 352.98 681.291 352.98H681.302Z" fill="#282727" stroke="#282727" stroke-linecap="round" stroke-linejoin="round"/>
<path d="M661.303 389.764C661.303 389.764 661.303 389.764 661.303 389.777C661.281 391.465 661.315 393.115 661.415 394.751C661.806 401.702 664.618 406.886 667.921 406.886H694.705C697.998 406.886 700.821 401.702 701.212 394.751C701.301 393.128 701.346 391.465 701.323 389.777C701.323 389.777 701.323 389.777 701.323 389.764H661.337H661.303Z" fill="#282727" stroke="#282727" stroke-linecap="round" stroke-linejoin="round"/>
<path d="M683.546 398.678H676.549V406.886H683.546V398.678Z" fill="#282727" stroke="#282727" stroke-linecap="round" stroke-linejoin="round"/>
<path d="M645.088 389.764L637.733 406.349" stroke="#282727" stroke-linecap="round" stroke-linejoin="round"/>
<path d="M661.293 389.764L653.938 406.349" stroke="#282727" stroke-linecap="round" stroke-linejoin="round"/>
<path d="M717.505 389.764L724.859 406.349" stroke="#282727" stroke-linecap="round" stroke-linejoin="round"/>
<path d="M701.301 389.764L708.655 406.349" stroke="#282727" stroke-linecap="round" stroke-linejoin="round"/>
<path d="M493.189 432.791V435.566H486.627V445.24H464.898L463.313 442.596L464.34 440.828L467.42 435.566V432.791H493.189Z" fill="#282727" stroke="#282727" stroke-linecap="round" stroke-linejoin="round"/>
<path d="M454.062 442.582H465.657L470.88 445.227H489.64L494.249 442.91H500.086C500.086 448.198 496.436 452.479 491.928 452.479H468.191C465.166 452.479 462.253 451.17 459.999 448.813L454.051 442.582H454.062Z" fill="#282727" stroke="#282727" stroke-linecap="round" stroke-linejoin="round"/>
<path d="M479.629 436.391H475.969V440.684H479.629V436.391Z" fill="#282727" stroke="#282727" stroke-linecap="round" stroke-linejoin="round"/>
<path d="M469.384 440.619L464.34 440.828L467.42 435.566V434.977L469.217 434.898L469.384 440.619Z" fill="#282727" stroke="#282727" stroke-linecap="round" stroke-linejoin="round"/>
<path d="M485.098 436.391H481.438V440.684H485.098V436.391Z" fill="#282727" stroke="#282727" stroke-linecap="round" stroke-linejoin="round"/>
<path d="M217.983 436.535V439.31H224.545V448.983H246.274L247.859 446.339L246.832 444.572L243.752 439.31V436.535H217.983Z" fill="#282727" stroke="#282727" stroke-linecap="round" stroke-linejoin="round"/>
<path d="M257.111 446.339H245.516L240.293 448.983H221.533L216.924 446.667H211.087C211.087 451.955 214.736 456.235 219.245 456.235H242.982C246.007 456.235 248.919 454.926 251.174 452.57L257.122 446.339H257.111Z" fill="#282727" stroke="#282727" stroke-linecap="round" stroke-linejoin="round"/>
<path d="M231.544 444.441H235.204V440.148H231.544V444.441Z" fill="#282727" stroke="#282727" stroke-linecap="round" stroke-linejoin="round"/>
<path d="M241.788 444.363L246.832 444.572L243.752 439.31V438.721L241.955 438.642L241.788 444.363Z" fill="#282727" stroke="#282727" stroke-linecap="round" stroke-linejoin="round"/>
<path d="M226.075 444.441H229.735V440.148H226.075V444.441Z" fill="#282727" stroke="#282727" stroke-linecap="round" stroke-linejoin="round"/>
<path d="M628.983 412.501V415.276H635.545V424.95H657.274L658.859 422.306L657.832 420.539L654.752 415.276V412.501H628.983Z" fill="#282727" stroke="#282727" stroke-linecap="round" stroke-linejoin="round"/>
<path d="M668.099 422.293H656.504L651.281 424.937H632.521L627.912 422.62H622.075C622.075 427.908 625.725 432.189 630.233 432.189H653.97C656.995 432.189 659.908 430.88 662.162 428.524L668.11 422.293H668.099Z" fill="#282727" stroke="#282727" stroke-linecap="round" stroke-linejoin="round"/>
<path d="M642.532 420.395H646.192V416.101H642.532V420.395Z" fill="#282727" stroke="#282727" stroke-linecap="round" stroke-linejoin="round"/>
<path d="M652.787 420.329L657.831 420.539L654.751 415.276V414.687L652.955 414.609L652.787 420.329Z" fill="#282727" stroke="#282727" stroke-linecap="round" stroke-linejoin="round"/>
<path d="M637.063 420.395H640.724V416.101H637.063V420.395Z" fill="#282727" stroke="#282727" stroke-linecap="round" stroke-linejoin="round"/>
<path d="M768.205 406.585C768.205 406.467 768.216 406.336 768.216 406.218C768.216 403.94 766.643 402.082 764.69 402.082C764.322 402.082 763.953 402.147 763.618 402.278C763.618 402.212 763.618 402.147 763.618 402.082C763.618 397.513 760.46 393.809 756.565 393.809C753.083 393.809 750.204 396.767 749.624 400.655C748.084 401.191 746.968 402.854 746.968 404.83C746.968 405.459 747.079 406.048 747.28 406.585H768.183H768.205Z" fill="#282727" stroke="#282727" stroke-linecap="round" stroke-linejoin="round"/>
<path d="M791.965 392.159C791.965 399.228 788.271 399.712 783.707 399.712C779.142 399.712 775.448 399.228 775.448 392.159C775.448 385.091 782.769 374.134 783.707 374.134C783.707 374.134 791.965 385.091 791.965 392.159Z" fill="#282727" stroke="#282727" stroke-linecap="round" stroke-linejoin="round"/>
<path d="M783.707 387.656V406.585" stroke="#282727" stroke-linecap="round" stroke-linejoin="round"/>
<path d="M67.4133 406.585C67.4133 406.467 67.4244 406.336 67.4244 406.218C67.4244 403.94 65.8509 402.082 63.8979 402.082C63.5296 402.082 63.1613 402.147 62.8265 402.278C62.8265 402.212 62.8265 402.147 62.8265 402.082C62.8265 397.513 59.6682 393.809 55.7734 393.809C52.2915 393.809 49.4122 396.767 48.8319 400.655C47.2918 401.191 46.1758 402.854 46.1758 404.83C46.1758 405.459 46.2874 406.048 46.4883 406.585H67.3909H67.4133Z" fill="#282727" stroke="#282727" stroke-linecap="round" stroke-linejoin="round"/>
<path d="M194.96 406.585C194.96 406.467 194.971 406.336 194.971 406.218C194.971 403.94 193.398 402.082 191.445 402.082C191.076 402.082 190.708 402.147 190.373 402.278C190.373 402.212 190.373 402.147 190.373 402.082C190.373 397.513 187.215 393.809 183.32 393.809C179.838 393.809 176.959 396.767 176.379 400.655C174.839 401.191 173.723 402.854 173.723 404.83C173.723 405.459 173.834 406.048 174.035 406.585H194.938H194.96Z" fill="#282727" stroke="#282727" stroke-linecap="round" stroke-linejoin="round"/>
<path d="M91.1721 392.159C91.1721 399.228 87.4781 399.712 82.9137 399.712C78.3492 399.712 74.6553 399.228 74.6553 392.159C74.6553 385.091 81.9762 374.134 82.9137 374.134C82.9137 374.134 91.1721 385.091 91.1721 392.159Z" fill="#282727" stroke="#282727" stroke-linecap="round" stroke-linejoin="round"/>
<path d="M82.9141 387.656V406.585" stroke="#282727" stroke-linecap="round" stroke-linejoin="round"/>
<path d="M408.574 392.159C408.574 399.228 404.88 399.712 400.316 399.712C395.752 399.712 392.058 399.228 392.058 392.159C392.058 385.091 399.379 374.134 400.316 374.134C400.316 374.134 408.574 385.091 408.574 392.159Z" fill="#282727" stroke="#282727" stroke-linecap="round" stroke-linejoin="round"/>
<path d="M400.327 387.656V406.585" stroke="#282727" stroke-linecap="round" stroke-linejoin="round"/>
</svg>
