<svg width="21" height="21" viewBox="0 0 21 21" fill="none" xmlns="http://www.w3.org/2000/svg">
<path d="M15.8247 3.74158C15.1509 3.74158 14.6094 4.28307 14.6094 4.95693C14.6094 5.63079 15.1509 6.17229 15.8247 6.17229C16.4986 6.17229 17.0401 5.63079 17.0401 4.95693C17.0401 4.28307 16.4986 3.74158 15.8247 3.74158Z" fill="white"/>
<path d="M10.4457 5.29388C7.64195 5.29388 5.36768 7.56816 5.36768 10.3719C5.36768 13.1756 7.64195 15.4499 10.4457 15.4499C13.2494 15.4499 15.5237 13.1756 15.5237 10.3719C15.5237 7.56816 13.2494 5.29388 10.4457 5.29388ZM10.4457 13.6329C8.65275 13.6329 7.19673 12.1769 7.19673 10.3839C7.19673 8.59099 8.65275 7.13497 10.4457 7.13497C12.2386 7.13497 13.6947 8.59099 13.6947 10.3839C13.6947 12.1769 12.2386 13.6329 10.4457 13.6329Z" fill="white"/>
<path d="M14.4767 20.6844H6.24595C2.82851 20.6844 0.0488281 17.9047 0.0488281 14.4873V6.25657C0.0488281 2.83913 2.82851 0.0594482 6.24595 0.0594482H14.4767C17.8941 0.0594482 20.6738 2.83913 20.6738 6.25657V14.4873C20.6738 17.9047 17.8941 20.6844 14.4767 20.6844ZM6.24595 1.9968C3.89947 1.9968 1.98618 3.91009 1.98618 6.25657V14.4873C1.98618 16.8338 3.89947 18.7471 6.24595 18.7471H14.4767C16.8232 18.7471 18.7364 16.8338 18.7364 14.4873V6.25657C18.7364 3.91009 16.8232 1.9968 14.4767 1.9968H6.24595Z" fill="white"/>
</svg>
