<svg width="21" height="22" viewBox="0 0 21 22" fill="none" xmlns="http://www.w3.org/2000/svg">
<path d="M0.0585938 21.294L1.52998 15.8065C0.697797 14.2989 0.263621 12.6225 0.263621 10.9099C0.263621 5.32583 4.81046 0.778992 10.3945 0.778992C15.9786 0.778992 20.5254 5.32583 20.5254 10.9099C20.5254 16.4939 15.9786 21.0408 10.3945 21.0408C8.71809 21.0408 7.06578 20.6186 5.58233 19.8106L0.0706477 21.282L0.0585938 21.294ZM5.84767 17.7603L6.19743 17.9653C7.47585 18.7251 8.92312 19.1231 10.3945 19.1231C14.9293 19.1231 18.6078 15.4326 18.6078 10.9099C18.6078 6.38716 14.9172 2.69663 10.3945 2.69663C5.87179 2.69663 2.18125 6.38716 2.18125 10.9099C2.18125 12.4054 2.59131 13.8768 3.38731 15.1673L3.6044 15.517L2.78428 18.5804L5.85973 17.7603H5.84767Z" fill="white"/>
<path fill-rule="evenodd" clip-rule="evenodd" d="M14.1452 12.321C13.7231 12.0677 13.1804 11.7903 12.6979 11.9953C12.3241 12.1521 12.0828 12.7431 11.8416 13.0446C11.721 13.2014 11.5642 13.2255 11.3713 13.1411C9.96019 12.5742 8.87473 11.6335 8.09079 10.331C7.95813 10.1259 7.98225 9.96914 8.13904 9.77617C8.38025 9.49878 8.6697 9.18521 8.73 8.81133C8.79031 8.43745 8.62146 8.00326 8.46467 7.66557C8.2717 7.24345 8.04255 6.62836 7.62043 6.38715C7.22243 6.17006 6.71589 6.29066 6.36613 6.58011C5.7631 7.0746 5.47365 7.83441 5.48571 8.60629C5.48571 8.82338 5.50983 9.04048 5.57014 9.24551C5.69074 9.75206 5.91989 10.2224 6.18522 10.6687C6.37819 11.0064 6.59529 11.332 6.82444 11.6456C7.58425 12.6707 8.52498 13.5632 9.61043 14.2386C10.1532 14.5763 10.7441 14.8657 11.3472 15.0708C12.0225 15.2999 12.6376 15.5291 13.3733 15.3843C14.1452 15.2396 14.905 14.7572 15.2065 14.0215C15.303 13.8044 15.3392 13.5511 15.291 13.322C15.1824 12.8396 14.5311 12.5622 14.1452 12.321Z" fill="white"/>
</svg>
